<svg xmlns="http://www.w3.org/2000/svg" viewBox="0 0 53.41 43.17"><defs><style>.cls-1{fill:#ed5858;}.cls-2{fill:#b73737;}.cls-3{fill:#d94c47;}.cls-4{fill:#fff;}.cls-5{fill:#5ed5ff;}.cls-6{fill:#63faff;}.cls-7{fill:#61a0ff;}.cls-8,.cls-9{fill:none;stroke-miterlimit:10;}.cls-8{stroke:#ed8e77;}.cls-9{stroke:#b0b0b0;stroke-width:0.75px;}</style></defs><title>자산 2</title><g id="레이어_2" data-name="레이어 2"><g id="레이어_1-2" data-name="레이어 1"><polygon class="cls-1" points="26.7 0 0 15.42 26.7 30.84 53.41 15.42 26.7 0"/><polygon class="cls-2" points="26.7 30.84 26.7 43.17 0 27.75 0 15.42 26.7 30.84"/><polygon class="cls-3" points="53.41 15.42 53.41 27.75 26.7 43.17 26.7 30.84 53.41 15.42"/><polygon class="cls-4" points="25.26 4.19 10.09 12.95 30.36 24.59 45.23 15.86 25.26 4.19"/><polygon class="cls-4" points="11.99 17.69 15.77 15.5 19.61 17.69 11.99 17.69"/><polygon class="cls-5" points="17.82 10.46 19.23 11.29 14.97 13.75 13.55 12.93 17.82 10.46"/><polygon class="cls-6" points="15.52 14.07 16.94 13.25 18.36 14.06 16.94 14.89 15.52 14.07"/><polygon class="cls-7" points="17.5 15.21 20.36 13.56 21.77 14.39 18.92 16.03 17.5 15.21"/><polygon class="cls-5" points="23.91 13.86 25.32 14.69 21.05 17.15 19.64 16.33 23.91 13.86"/><polygon class="cls-6" points="21.6 17.47 23.02 16.65 24.44 17.47 23.02 18.3 21.6 17.47"/><polygon class="cls-7" points="23.59 18.61 26.44 16.97 27.86 17.79 25.01 19.44 23.59 18.61"/><ellipse class="cls-7" cx="35.09" cy="15.54" rx="4.97" ry="3.29"/><path class="cls-6" d="M35.09,15.54l1.16,3.2a7.46,7.46,0,0,1-1.16.09c-2.73,0-5-1.48-5-3.29s2.24-3.29,5-3.29,5,1.49,5,3.29Z"/><path class="cls-5" d="M35.09,15.57l-1,3.23c-2.33-.3-4-1.66-4-3.23,0-1.8,2.24-3.29,5-3.29s5,1.49,5,3.29Z"/><line class="cls-8" x1="24.58" y1="6.23" x2="29.96" y2="9.34"/><line class="cls-9" x1="22.11" y1="7.51" x2="30.31" y2="12.25"/><line class="cls-9" x1="20.81" y1="8.31" x2="29.02" y2="13.04"/><line class="cls-9" x1="19.63" y1="9.12" x2="27.83" y2="13.86"/></g></g></svg>