<svg xmlns="http://www.w3.org/2000/svg" viewBox="0 0 53.41 43.17"><defs><style>.cls-1{fill:#0d9b68;}.cls-2{fill:#087250;}.cls-3{fill:#0e895a;}.cls-4{fill:#fff;}.cls-5,.cls-6{fill:none;stroke-miterlimit:10;}.cls-5{stroke:#f98c32;}.cls-6{stroke:#afbfbd;stroke-width:0.75px;}.cls-7{fill:#e5c26c;}.cls-8{fill:#f98c32;}.cls-9{fill:#e2711e;}.cls-10{fill:#f4d47d;}.cls-11{fill:#4f4c44;}</style></defs><title>자산 1</title><g id="레이어_2" data-name="레이어 2"><g id="레이어_1-2" data-name="레이어 1"><polygon class="cls-1" points="26.7 0 0 15.42 26.7 30.84 53.41 15.42 26.7 0"/><polygon class="cls-2" points="26.7 30.84 26.7 43.17 0 27.75 0 15.42 26.7 30.84"/><polygon class="cls-3" points="53.41 15.42 53.41 27.75 26.7 43.17 26.7 30.84 53.41 15.42"/><polygon class="cls-4" points="26.17 6.05 10.14 15.3 20.83 21.47 36.85 12.22 26.17 6.05"/><line class="cls-5" x1="25.13" y1="8.76" x2="30.47" y2="11.84"/><line class="cls-6" x1="23.18" y1="9.84" x2="28.52" y2="12.93"/><line class="cls-6" x1="20.83" y1="11.01" x2="26.17" y2="14.09"/><line class="cls-6" x1="18.72" y1="12.22" x2="24.06" y2="15.3"/><polygon class="cls-7" points="36.84 17.57 35.33 20.19 35.33 18.43 36.84 17.57"/><polygon class="cls-8" points="35.33 18.43 33.82 17.57 32.32 18.43 32.32 18.43 27.8 21.05 29.3 21.91 30.81 21.05 30.81 21.05 35.33 18.43"/><polygon class="cls-9" points="35.33 18.43 33.82 19.3 33.82 19.3 29.3 21.91 29.3 23.66 33.82 21.06 33.82 21.05 35.33 20.19 35.33 18.43"/><polygon class="cls-10" points="33.82 17.57 36.84 17.57 35.33 18.43 33.82 17.57"/><polygon class="cls-11" points="36.84 17.57 35.94 17.57 36.39 17.82 36.39 18.35 36.84 17.57"/><polygon class="cls-7" points="27.8 21.05 27.8 22.85 29.3 23.66 29.3 21.91 27.8 21.05"/><polygon class="cls-11" points="28.32 21.96 28.77 22.22 28.77 22.74 28.32 22.48 28.32 21.96"/></g></g></svg>