<svg xmlns="http://www.w3.org/2000/svg" viewBox="0 0 53.41 43.17"><defs><style>.cls-1{fill:#ffd066;}.cls-2{fill:#d69900;}.cls-3{fill:#f9b51c;}.cls-4{fill:#e03c1b;}.cls-5{fill:#fff;}</style></defs><title>자산 3</title><g id="레이어_2" data-name="레이어 2"><g id="레이어_1-2" data-name="레이어 1"><polygon class="cls-1" points="26.7 0 0 15.42 26.7 30.84 53.41 15.42 26.7 0"/><polygon class="cls-2" points="26.7 30.84 26.7 43.17 0 27.75 0 15.42 26.7 30.84"/><polygon class="cls-3" points="53.41 15.42 53.41 27.75 26.7 43.17 26.7 30.84 53.41 15.42"/><path class="cls-4" d="M16.45,12.32,22.4,8.88a4.11,4.11,0,0,1,4.1,0L37.79,15.4a1.79,1.79,0,0,1,0,3.1l-6,3.47a4,4,0,0,1-4,0L16.45,15.41A1.78,1.78,0,0,1,16.45,12.32Z"/><polygon class="cls-5" points="27.95 12.63 23.89 14.97 29.41 16.6 27.95 12.63"/></g></g></svg>