<svg xmlns="http://www.w3.org/2000/svg" viewBox="0 0 64.63 64.63"><defs><style>.cls-1{fill:#ffbe2e;}.cls-2{opacity:0.5;}.cls-3,.cls-6{stroke:#bfbfbf;stroke-miterlimit:10;}.cls-4{fill:#276fff;}.cls-5{fill:#fff;}.cls-6{fill:none;}.cls-7{fill:#47e6d8;}.cls-8{fill:#fc8f5d;}.cls-9{fill:#f0f0f0;}.cls-10{fill:#f55;}</style></defs><title>자산 8</title><g id="레이어_2" data-name="레이어 2"><g id="레이어_1-2" data-name="레이어 1"><circle class="cls-1" cx="32.31" cy="32.31" r="32.31"/><g class="cls-2"><rect x="10.37" y="15.21" width="45" height="36" rx="4.69" ry="4.69"/><rect x="10.37" y="24.21" width="45" height="27"/><rect class="cls-3" x="23.22" y="27.19" width="28.3" height="21.22"/><line class="cls-3" x1="23.22" y1="34.27" x2="51.52" y2="34.27"/><line class="cls-3" x1="23.22" y1="41.37" x2="51.52" y2="41.34"/><line class="cls-3" x1="30.3" y1="27.19" x2="30.3" y2="48.41"/><line class="cls-3" x1="37.37" y1="27.19" x2="37.37" y2="48.41"/><line class="cls-3" x1="44.45" y1="27.19" x2="44.45" y2="48.41"/><rect x="11.49" y="43.91" width="4.5" height="4.5"/><rect x="17.08" y="43.91" width="4.5" height="4.5"/><rect x="29.4" y="14.04" width="1.8" height="4.25" rx="0.9" ry="0.9"/><rect x="22.32" y="14.04" width="1.8" height="4.25" rx="0.9" ry="0.9"/><rect x="14.53" y="14.04" width="1.8" height="4.25" rx="0.9" ry="0.9"/><rect x="36.47" y="14.04" width="1.8" height="4.25" rx="0.9" ry="0.9"/><rect x="43.55" y="14.04" width="1.8" height="4.25" rx="0.9" ry="0.9"/><rect x="50.62" y="14.04" width="1.8" height="4.25" rx="0.9" ry="0.9"/><path d="M39.57,35.83a.46.46,0,0,0-.82.43h0l1.84,3.48a.47.47,0,0,0,.83-.44l-1.84-3.48Z"/><path d="M42.44,35.83a.46.46,0,0,1,.81.43h0l-1.84,3.48a.47.47,0,0,1-.83-.44l1.84-3.48Z"/></g><rect class="cls-4" x="9.25" y="14.04" width="45" height="36" rx="4.69" ry="4.69"/><rect class="cls-5" x="9.25" y="23.04" width="45" height="27"/><rect class="cls-6" x="22.11" y="26.02" width="28.3" height="21.22"/><line class="cls-6" x1="22.11" y1="33.09" x2="50.4" y2="33.09"/><line class="cls-6" x1="22.11" y1="40.2" x2="50.4" y2="40.17"/><line class="cls-6" x1="29.18" y1="26.02" x2="29.18" y2="47.24"/><line class="cls-6" x1="36.25" y1="26.02" x2="36.25" y2="47.24"/><line class="cls-6" x1="43.33" y1="26.02" x2="43.33" y2="47.24"/><rect class="cls-7" x="10.37" y="42.74" width="4.5" height="4.5"/><rect class="cls-8" x="15.96" y="42.74" width="4.5" height="4.5"/><rect class="cls-9" x="28.28" y="12.87" width="1.8" height="4.25" rx="0.9" ry="0.9"/><rect class="cls-9" x="21.21" y="12.87" width="1.8" height="4.25" rx="0.9" ry="0.9"/><rect class="cls-9" x="13.41" y="12.87" width="1.8" height="4.25" rx="0.9" ry="0.9"/><rect class="cls-9" x="35.35" y="12.87" width="1.8" height="4.25" rx="0.9" ry="0.9"/><rect class="cls-9" x="42.43" y="12.87" width="1.8" height="4.25" rx="0.9" ry="0.9"/><rect class="cls-9" x="49.5" y="12.87" width="1.8" height="4.25" rx="0.9" ry="0.9"/><path class="cls-10" d="M38.45,34.66a.46.46,0,0,0-.81.43h0l1.84,3.48a.47.47,0,0,0,.83-.44l-1.84-3.48Z"/><path class="cls-10" d="M41.32,34.66a.46.46,0,0,1,.82.43h0L40.3,38.58a.47.47,0,0,1-.83-.44l1.84-3.48Z"/></g></g></svg>