<svg xmlns="http://www.w3.org/2000/svg" viewBox="0 0 74.01 78.34"><defs><style>.cls-1{fill:#fff;}.cls-2{fill:#eaeaea;}.cls-3{fill:#d3d3d3;}.cls-4{fill:#d94c47;}.cls-5,.cls-8{fill:none;stroke-miterlimit:10;}.cls-5{stroke:#bfbfbf;}.cls-6{fill:#47e6d8;}.cls-7{fill:#ffbe2e;}.cls-8{stroke:#f55;}</style></defs><title>자산 14</title><g id="레이어_2" data-name="레이어 2"><g id="레이어_1-2" data-name="레이어 1"><polygon class="cls-1" points="0 49.85 49.34 78.34 61.68 28.49 12.34 0 0 49.85"/><polygon class="cls-2" points="74.01 64.1 61.68 28.49 55.51 53.41 74.01 64.1"/><polygon class="cls-3" points="74.01 64.1 49.34 78.34 55.51 53.41 74.01 64.1"/><polygon class="cls-4" points="12.34 0 61.68 28.49 58.59 40.95 9.25 12.46 12.34 0"/><polygon class="cls-5" points="23.98 25.64 16.94 54.07 45.08 70.31 50.35 48.99 52.11 41.89 23.98 25.64"/><line class="cls-5" x1="22.22" y1="32.75" x2="50.35" y2="48.99"/><line class="cls-5" x1="20.46" y1="39.86" x2="48.59" y2="56.1"/><line class="cls-5" x1="46.83" y1="63.21" x2="18.7" y2="46.96"/><line class="cls-5" x1="45.08" y1="37.83" x2="38.02" y2="66.24"/><line class="cls-5" x1="38.04" y1="33.76" x2="31.01" y2="62.19"/><line class="cls-5" x1="24.01" y1="58.15" x2="31.01" y2="29.7"/><polygon class="cls-6" points="9.7 51.28 2.65 47.21 4.53 40.18 11.46 44.17 9.7 51.28"/><polygon class="cls-7" points="11.9 42.84 4.85 38.77 6.73 31.74 13.66 35.74 11.9 42.84"/><polyline class="cls-8" points="35.6 52.1 36.42 55.32 40.28 52.26"/></g></g></svg>