<svg xmlns="http://www.w3.org/2000/svg" xmlns:xlink="http://www.w3.org/1999/xlink" viewBox="0 0 597.16 451.27"><defs><style>.cls-1,.cls-17,.cls-18,.cls-19,.cls-2,.cls-24,.cls-3,.cls-46,.cls-5{fill:none;stroke-miterlimit:10;stroke-width:3px;}.cls-1{stroke:url(#무제_그라디언트_8);}.cls-2{stroke:url(#무제_그라디언트_55);}.cls-3{stroke:url(#무제_그라디언트_13);}.cls-4{fill:#bab2aa;}.cls-5{stroke:url(#무제_그라디언트_65);}.cls-6{fill:#a8cbe5;}.cls-7{fill:#f7f7f7;}.cls-8{fill:#90aad3;}.cls-9{fill:#c3eae6;}.cls-10{fill:#fff;}.cls-11{fill:#d0ebfc;}.cls-12{fill:#ff6464;}.cls-13{fill:#e2e2e2;}.cls-14{fill:#d94c47;}.cls-15{fill:#087250;}.cls-16{fill:#f4b300;}.cls-17{stroke:url(#무제_그라디언트_30);}.cls-18{stroke:url(#무제_그라디언트_11);}.cls-19{stroke:url(#무제_그라디언트_16);}.cls-20{fill:#0cc6c1;}.cls-21{fill:#00e5e5;}.cls-22{fill:#82716c;}.cls-23{fill:#9e908c;}.cls-24{stroke:url(#무제_그라디언트_40);}.cls-25{fill:#c4e6f7;}.cls-26{fill:#ebe4d7;}.cls-27{fill:#d6cfc5;}.cls-28{fill:#cac3b9;}.cls-29{fill:#b5866c;}.cls-30{fill:#dbdacd;}.cls-31{fill:#edecda;}.cls-32{fill:#6f716c;}.cls-33{fill:#b3b4b3;}.cls-34{fill:#91a680;}.cls-35{fill:#e3efce;}.cls-36{fill:#718a59;}.cls-37{fill:#cfe5bd;}.cls-38{fill:#897f61;}.cls-39{fill:#e1f1f9;}.cls-40{fill:#adbdc3;}.cls-41{fill:#f7fbfd;}.cls-42{fill:#f3faff;}.cls-43{fill:#d9d0c7;}.cls-44{fill:#f0e8e1;}.cls-45{fill:#efefef;}.cls-46{stroke:url(#무제_그라디언트_10);}.cls-47{fill:url(#무제_그라디언트_20);}.cls-48{fill:#f5c634;}.cls-49{fill:url(#무제_그라디언트_20-2);}.cls-50{fill:url(#무제_그라디언트_20-3);}.cls-51{fill:url(#무제_그라디언트_20-4);}.cls-52{fill:url(#무제_그라디언트_20-5);}.cls-53{fill:url(#무제_그라디언트_20-6);}.cls-54{fill:url(#무제_그라디언트_20-7);}.cls-55{fill:url(#무제_그라디언트_20-8);}.cls-56{fill:url(#무제_그라디언트_20-9);}.cls-57{fill:url(#무제_그라디언트_20-10);}.cls-58{fill:url(#무제_그라디언트_20-11);}.cls-59{fill:url(#무제_그라디언트_20-12);}.cls-60{fill:url(#무제_그라디언트_20-13);}.cls-61{fill:url(#무제_그라디언트_20-14);}.cls-62{fill:url(#무제_그라디언트_20-15);}.cls-63{fill:url(#무제_그라디언트_20-16);}.cls-64{fill:url(#무제_그라디언트_20-17);}.cls-65{fill:url(#무제_그라디언트_20-18);}.cls-66{fill:url(#무제_그라디언트_20-19);}.cls-67{fill:url(#무제_그라디언트_20-20);}.cls-68{fill:url(#무제_그라디언트_20-21);}.cls-69{fill:url(#무제_그라디언트_20-22);}.cls-70{fill:url(#무제_그라디언트_20-23);}.cls-71{fill:url(#무제_그라디언트_20-24);}.cls-72{fill:url(#무제_그라디언트_20-25);}.cls-73{fill:url(#무제_그라디언트_20-26);}.cls-74{fill:url(#무제_그라디언트_20-27);}.cls-75{fill:url(#무제_그라디언트_20-28);}.cls-76{fill:url(#무제_그라디언트_20-29);}.cls-77{fill:url(#무제_그라디언트_20-30);}.cls-78{fill:url(#무제_그라디언트_20-31);}.cls-79{fill:url(#무제_그라디언트_20-32);}.cls-80{fill:url(#무제_그라디언트_20-33);}.cls-81{fill:url(#무제_그라디언트_20-34);}.cls-82{fill:url(#무제_그라디언트_20-35);}.cls-83{fill:url(#무제_그라디언트_20-36);}.cls-84{fill:url(#무제_그라디언트_20-37);}.cls-85{fill:url(#무제_그라디언트_20-38);}</style><linearGradient id="무제_그라디언트_8" x1="334.57" y1="159.44" x2="212.6" y2="37.47" gradientUnits="userSpaceOnUse"><stop offset="0.12" stop-color="#2cefe8"/><stop offset="0.55" stop-color="#1934d9"/><stop offset="1" stop-color="#15e8ff"/></linearGradient><linearGradient id="무제_그라디언트_55" x1="141.43" y1="167" x2="212.67" y2="167" gradientUnits="userSpaceOnUse"><stop offset="0.09" stop-color="#2cefe8"/><stop offset="0.34" stop-color="#1829d8"/><stop offset="0.54" stop-color="#2cefe8"/></linearGradient><linearGradient id="무제_그라디언트_13" x1="355.83" y1="141.26" x2="450.5" y2="141.26" gradientUnits="userSpaceOnUse"><stop offset="0.31" stop-color="#2cefe8"/><stop offset="1" stop-color="#1829d8"/></linearGradient><linearGradient id="무제_그라디언트_65" x1="107.66" y1="175.02" x2="22.5" y2="322.53" gradientUnits="userSpaceOnUse"><stop offset="0.17" stop-color="#2cefe8"/><stop offset="0.24" stop-color="#27c1e4"/><stop offset="0.37" stop-color="#1f70de"/><stop offset="0.46" stop-color="#1a3dda"/><stop offset="0.5" stop-color="#1829d8"/><stop offset="0.63" stop-color="#1d57dc"/><stop offset="0.91" stop-color="#28c9e5"/><stop offset="1" stop-color="#2cefe8"/></linearGradient><linearGradient id="무제_그라디언트_30" x1="137.8" y1="402.36" x2="321.84" y2="402.36" gradientUnits="userSpaceOnUse"><stop offset="0.25" stop-color="#2cefe8"/><stop offset="0.53" stop-color="#1829d8"/><stop offset="0.74" stop-color="#18dbd8"/><stop offset="1" stop-color="#18e8d8"/></linearGradient><linearGradient id="무제_그라디언트_11" x1="330.16" y1="239.9" x2="403.59" y2="239.9" gradientUnits="userSpaceOnUse"><stop offset="0.37" stop-color="#2cefe8"/><stop offset="1" stop-color="#1829d8"/></linearGradient><linearGradient id="무제_그라디언트_16" x1="347.01" y1="333.26" x2="442.03" y2="333.26" gradientUnits="userSpaceOnUse"><stop offset="0.43" stop-color="#2cefe8"/><stop offset="1" stop-color="#1829d8"/></linearGradient><linearGradient id="무제_그라디언트_40" x1="249.11" y1="226.55" x2="165.15" y2="371.99" gradientUnits="userSpaceOnUse"><stop offset="0.15" stop-color="#2cefe8"/><stop offset="1" stop-color="#1829d8"/></linearGradient><linearGradient id="무제_그라디언트_10" x1="469.69" y1="206.73" x2="597.16" y2="206.73" gradientUnits="userSpaceOnUse"><stop offset="0.47" stop-color="#2cefe8"/><stop offset="1" stop-color="#1829d8"/></linearGradient><linearGradient id="무제_그라디언트_20" x1="459.48" y1="251.99" x2="486.13" y2="251.99" gradientUnits="userSpaceOnUse"><stop offset="0.45" stop-color="#f18f19"/><stop offset="1" stop-color="#f6d76b"/></linearGradient><linearGradient id="무제_그라디언트_20-2" x1="460.81" y1="243.96" x2="484.8" y2="243.96" xlink:href="#무제_그라디언트_20"/><linearGradient id="무제_그라디언트_20-3" x1="460.29" y1="247.34" x2="486.94" y2="247.34" xlink:href="#무제_그라디언트_20"/><linearGradient id="무제_그라디언트_20-4" x1="461.62" y1="239.31" x2="485.61" y2="239.31" xlink:href="#무제_그라디언트_20"/><linearGradient id="무제_그라디언트_20-5" x1="460.29" y1="242.31" x2="486.94" y2="242.31" xlink:href="#무제_그라디언트_20"/><linearGradient id="무제_그라디언트_20-6" x1="461.62" y1="234.28" x2="485.61" y2="234.28" xlink:href="#무제_그라디언트_20"/><linearGradient id="무제_그라디언트_20-7" x1="458.96" y1="237.66" x2="485.61" y2="237.66" xlink:href="#무제_그라디언트_20"/><linearGradient id="무제_그라디언트_20-8" x1="460.29" y1="229.63" x2="484.28" y2="229.63" xlink:href="#무제_그라디언트_20"/><linearGradient id="무제_그라디언트_20-9" x1="460.29" y1="233.01" x2="486.94" y2="233.01" xlink:href="#무제_그라디언트_20"/><linearGradient id="무제_그라디언트_20-10" x1="461.62" y1="224.98" x2="485.61" y2="224.98" xlink:href="#무제_그라디언트_20"/><linearGradient id="무제_그라디언트_20-11" x1="460.81" y1="227.98" x2="487.46" y2="227.98" xlink:href="#무제_그라디언트_20"/><linearGradient id="무제_그라디언트_20-12" x1="462.14" y1="219.94" x2="486.13" y2="219.94" xlink:href="#무제_그라디언트_20"/><linearGradient id="무제_그라디언트_20-13" x1="460.81" y1="222.98" x2="487.46" y2="222.98" xlink:href="#무제_그라디언트_20"/><linearGradient id="무제_그라디언트_20-14" x1="462.14" y1="214.95" x2="486.13" y2="214.95" xlink:href="#무제_그라디언트_20"/><linearGradient id="무제_그라디언트_20-15" x1="460.29" y1="219.13" x2="486.94" y2="219.13" xlink:href="#무제_그라디언트_20"/><linearGradient id="무제_그라디언트_20-16" x1="461.62" y1="211.1" x2="485.61" y2="211.1" xlink:href="#무제_그라디언트_20"/><linearGradient id="무제_그라디언트_20-17" x1="460.81" y1="214.48" x2="487.46" y2="214.48" xlink:href="#무제_그라디언트_20"/><linearGradient id="무제_그라디언트_20-18" x1="462.14" y1="206.45" x2="486.13" y2="206.45" xlink:href="#무제_그라디언트_20"/><linearGradient id="무제_그라디언트_20-19" x1="440.47" y1="266.73" x2="467.12" y2="266.73" xlink:href="#무제_그라디언트_20"/><linearGradient id="무제_그라디언트_20-20" x1="441.8" y1="258.7" x2="465.79" y2="258.7" xlink:href="#무제_그라디언트_20"/><linearGradient id="무제_그라디언트_20-21" x1="440.93" y1="261.94" x2="467.59" y2="261.94" xlink:href="#무제_그라디언트_20"/><linearGradient id="무제_그라디언트_20-22" x1="442.27" y1="253.91" x2="466.26" y2="253.91" xlink:href="#무제_그라디언트_20"/><linearGradient id="무제_그라디언트_20-23" x1="440.93" y1="256.23" x2="467.59" y2="256.23" xlink:href="#무제_그라디언트_20"/><linearGradient id="무제_그라디언트_20-24" x1="442.27" y1="248.2" x2="466.26" y2="248.2" xlink:href="#무제_그라디언트_20"/><linearGradient id="무제_그라디언트_20-25" x1="440.93" y1="251.08" x2="467.59" y2="251.08" xlink:href="#무제_그라디언트_20"/><linearGradient id="무제_그라디언트_20-26" x1="442.27" y1="243.04" x2="466.26" y2="243.04" xlink:href="#무제_그라디언트_20"/><linearGradient id="무제_그라디언트_20-27" x1="440.47" y1="246.55" x2="467.12" y2="246.55" xlink:href="#무제_그라디언트_20"/><linearGradient id="무제_그라디언트_20-28" x1="441.8" y1="238.52" x2="465.79" y2="238.52" xlink:href="#무제_그라디언트_20"/><linearGradient id="무제_그라디언트_20-29" x1="440.93" y1="241.63" x2="467.59" y2="241.63" xlink:href="#무제_그라디언트_20"/><linearGradient id="무제_그라디언트_20-30" x1="442.27" y1="233.6" x2="466.26" y2="233.6" xlink:href="#무제_그라디언트_20"/><linearGradient id="무제_그라디언트_20-31" x1="468.43" y1="267.79" x2="495.08" y2="267.79" xlink:href="#무제_그라디언트_20"/><linearGradient id="무제_그라디언트_20-32" x1="469.76" y1="259.76" x2="493.75" y2="259.76" xlink:href="#무제_그라디언트_20"/><linearGradient id="무제_그라디언트_20-33" x1="469.76" y1="262.49" x2="496.42" y2="262.49" xlink:href="#무제_그라디언트_20"/><linearGradient id="무제_그라디언트_20-34" x1="471.09" y1="254.46" x2="495.08" y2="254.46" xlink:href="#무제_그라디언트_20"/><linearGradient id="무제_그라디언트_20-35" x1="468.43" y1="258.11" x2="495.08" y2="258.11" xlink:href="#무제_그라디언트_20"/><linearGradient id="무제_그라디언트_20-36" x1="469.76" y1="250.07" x2="493.75" y2="250.07" xlink:href="#무제_그라디언트_20"/><linearGradient id="무제_그라디언트_20-37" x1="484.9" y1="368.96" x2="511.56" y2="368.96" gradientTransform="translate(-71.05 611.23) rotate(-70.64)" xlink:href="#무제_그라디언트_20"/><linearGradient id="무제_그라디언트_20-38" x1="486.23" y1="360.92" x2="510.22" y2="360.92" gradientTransform="translate(-71.05 611.23) rotate(-70.64)" xlink:href="#무제_그라디언트_20"/></defs><title>자산 4</title><g id="레이어_2" data-name="레이어 2"><g id="레이어_1-2" data-name="레이어 1"><polyline class="cls-1" points="141.79 110.33 292.86 23.11 405.38 88.08"/><line class="cls-2" x1="142.18" y1="146.87" x2="211.92" y2="187.13"/><line class="cls-3" x1="449.75" y1="114.36" x2="356.58" y2="168.15"/><polygon class="cls-4" points="178.57 215.33 184.94 223.23 192.07 211.46 178.57 215.33"/><polyline class="cls-5" points="89.33 359.38 2.98 308.64 115.35 243.77 15.31 187.57 71.6 155.07"/><path class="cls-6" d="M190.14,119.89a3.72,3.72,0,0,0,0-.58l-.13-4.87-5.24.34L142,90.12a6.1,6.1,0,0,0-6.09,0l-98.56,57-4.35-1,.14,4.84h0a2.79,2.79,0,0,0,1.39,2.75l47,27.07a6.25,6.25,0,0,0,6.26,0l100.83-58.35a3.12,3.12,0,0,0,1.56-2.56Z"/><path class="cls-7" d="M81.36,175.93l-47-27.07a2.85,2.85,0,0,1,0-4.94L135.72,85.26a6.1,6.1,0,0,1,6.1,0l46.62,26.85a3.16,3.16,0,0,1,0,5.47L87.61,175.92A6.23,6.23,0,0,1,81.36,175.93Z"/><rect class="cls-8" x="106.96" y="162.75" width="2.14" height="8.07" rx="0.91" ry="0.91" transform="translate(17.79 343.83) rotate(-120.06)"/><rect class="cls-8" x="114.76" y="158.24" width="2.14" height="8.07" rx="0.91" ry="0.91" transform="translate(33.39 343.8) rotate(-120.06)"/><polygon class="cls-9" points="127.69 96.27 127.69 96.27 46.06 143.51 90.04 168.99 172.15 121.61 127.69 96.27"/><ellipse class="cls-6" cx="155.14" cy="101.83" rx="6.6" ry="3.98"/><polygon class="cls-6" points="360.64 90.66 360.64 96.86 368.16 99.95 370.58 91.6 360.64 90.66"/><polygon class="cls-6" points="542.67 121.76 542.67 128.17 528.18 135.28 528.18 125.6 542.67 121.76"/><path class="cls-6" d="M362.42,100l110.86,64a10.77,10.77,0,0,0,10.81,0l56.81-32.79a3.57,3.57,0,0,0,0-6.18L427.29,59.39a5.3,5.3,0,0,0-5.31,0L362.42,93.77A3.57,3.57,0,0,0,362.42,100Z"/><path class="cls-10" d="M362.42,93.74l110.86,64a10.81,10.81,0,0,0,10.81,0L540.9,125a3.57,3.57,0,0,0,0-6.18L427.29,53.18a5.3,5.3,0,0,0-5.31,0L362.42,87.57A3.57,3.57,0,0,0,362.42,93.74Z"/><path class="cls-10" d="M510.79,52.45,420.44.28a2.11,2.11,0,0,0-1.67-.19h0l-.42.18h0l-4.81,2.07,3,2.91.78-.27V75.24a2.09,2.09,0,0,0,1.06,1.83l86,49.67-2.14,1,3.82,3.52,4.63-1.95h0a2.09,2.09,0,0,0,1.21-1.9V54.28A2.12,2.12,0,0,0,510.79,52.45Z"/><path class="cls-11" d="M412.61,4.08V77.2A2.12,2.12,0,0,0,413.67,79L504,131.2a2.11,2.11,0,0,0,3.17-1.83V56.24a2.11,2.11,0,0,0-1.06-1.83L415.79,2.25A2.12,2.12,0,0,0,412.61,4.08Z"/><polygon class="cls-10" points="417.26 13.33 417.26 75.24 502.19 125.5 502.19 57.91 417.26 10.63 417.26 13.33"/><polygon class="cls-12" points="498.33 64.79 498.33 62.32 466.66 44.03 466.66 46.5 498.33 64.79"/><polygon class="cls-13" points="498.33 69.53 498.33 67.07 466.66 48.78 466.66 51.25 498.33 69.53"/><polygon class="cls-13" points="498.33 74.43 498.33 71.97 466.66 53.68 466.66 56.14 498.33 74.43"/><polygon class="cls-13" points="498.33 79.47 498.33 77 466.66 58.72 466.66 61.18 498.33 79.47"/><polygon class="cls-13" points="498.33 84.22 498.33 81.75 466.66 63.46 466.66 65.93 498.33 84.22"/><polygon class="cls-13" points="498.33 89.11 498.33 86.65 466.66 68.36 466.66 70.83 498.33 89.11"/><polygon class="cls-9" points="466.66 78.42 466.66 89.11 480.17 96.92 480.17 86.23 466.66 78.42"/><polygon class="cls-13" points="481.72 87.13 481.72 89.59 499.88 100.08 499.88 97.61 481.72 87.13"/><polygon class="cls-13" points="481.72 90.79 481.72 93.25 499.88 103.74 499.88 101.28 481.72 90.79"/><polygon class="cls-9" points="466.66 90.66 466.66 101.35 480.17 109.15 480.17 98.46 466.66 90.66"/><polygon class="cls-13" points="481.72 99.33 481.72 101.8 499.88 112.29 499.88 109.82 481.72 99.33"/><polygon class="cls-13" points="481.72 103 481.72 105.46 499.88 115.95 499.88 113.48 481.72 103"/><polygon class="cls-9" points="423.02 19.06 423.02 50.26 458.63 70.83 458.63 39.62 423.02 19.06"/><path class="cls-6" d="M387.68,173.14l-10.42,3.31-85.78-49a13,13,0,0,0-12.92,0L196.68,175l-12.74-1v17.25H184a12.75,12.75,0,0,0,6.42,9.82l89,51a12.91,12.91,0,0,0,12.87,0l88.85-50.92a12.82,12.82,0,0,0,6.5-11.39h0Z"/><path class="cls-10" d="M190.38,162l88.18-51.17a12.93,12.93,0,0,1,12.92,0l89.68,51.25a12.94,12.94,0,0,1,0,22.46l-88.85,50.93a13,13,0,0,1-12.87,0l-89-51A12.94,12.94,0,0,1,190.38,162Z"/><path class="cls-14" d="M237.68,173.75c-.24-21.11-.14-42.22,0-63.33a3.65,3.65,0,0,0-2.12-3.77c-3.28-1.73-6.44-3.7-9.66-5.55-2.13-1.22-2.15-1.2-2.15,1.26v33.69c.12,12.86-.13,24.55.24,36.23,0,1.23.13,2.25,1.39,2.94,3.67,2,7.29,4.15,10.91,6.27,1.19.69,1.73.59,1.64-.94C237.81,178.28,237.71,176,237.68,173.75Z"/><path class="cls-14" d="M283.26,134c-4.22-2.3-8.37-4.75-12.52-7.17a2,2,0,0,0-2.55.17c-7.83,6-15.67,11.86-23.6,17.67-1.62,1.18-1.82,2.13-.9,3.89,5.68,10.9,11.24,21.87,16.87,32.8,3.21,6.23,6.48,12.43,9.71,18.65a4.69,4.69,0,0,0,1.89,2.08c3.66,2.05,7.27,4.17,10.91,6.25,2,1.15,2.05,1.13,2.05-1.19q0-17.43,0-34.85h.06c0-11.61,0-23.22,0-34.84A3.4,3.4,0,0,0,283.26,134Z"/><path class="cls-15" d="M334.42,104.11c.4-.24.77-.53,1.18-.81-.18-.7-.73-.88-1.19-1.14-3.51-2-7.06-4-10.53-6.08a3.31,3.31,0,0,0-3.79,0c-7.41,4.19-14.62,8.73-22.08,12.84-7.7,4.24-15.2,8.84-22.8,13.25-1.39.81-1.47,1.31,0,2.13q5.42,3,10.71,6.17a2.76,2.76,0,0,0,3.22,0c3.76-2.27,7.59-4.44,11.39-6.65Z"/><path class="cls-15" d="M288.41,76.37c.52-.31,1-.69,1.52-1-.13-.55-.53-.71-.87-.91l-10.55-6.06a3.2,3.2,0,0,0-3.5.13q-4.06,2.45-8.18,4.82l-36.6,21.16c-1.9,1.1-1.89,1.14.06,2.26,3.27,1.89,6.58,3.74,9.81,5.69a3,3,0,0,0,3.58,0Q256.16,95,268.75,87.68C275.28,83.88,281.86,80.14,288.41,76.37Z"/><path class="cls-16" d="M298.78,144.19c1.33-1,2.78-1.77,4.2-2.6q15.3-9,30.62-17.87c2.23-1.3,5.07.24,4.74,2.63-.35,2.56-1,5.15-3.6,6.64-4.51,2.62-9,5.31-13.49,7.95q-8.26,4.86-16.54,9.69a7.67,7.67,0,0,1-4.25,1.42c-1.51-.13-3.11-.12-3.72-1.93A6.23,6.23,0,0,1,298.78,144.19Zm42,3.2c-3.36-2.15-3.67-2.63-1.11-5.5a30.84,30.84,0,0,0,8.08-23.06c-.25-4.78-2.91-8-6.35-10.76a2.53,2.53,0,0,0-3.2-.07q-23.42,13.65-46.9,27.19A3.82,3.82,0,0,0,289.2,139c.07,11.48,0,23,0,34.44h0q0,17,0,34c0,3,0,3,2.56,1.57q23.14-13.31,46.29-26.61A10,10,0,0,0,341,180a30.47,30.47,0,0,0,6.86-21C347.6,153.73,345,150.05,340.82,147.39Zm-2.48,17.88c-.35,2.55-1,5.14-3.6,6.63-4.51,2.62-9,5.31-13.49,7.95q-8.26,4.86-16.54,9.69a7.6,7.6,0,0,1-4.25,1.42c-1.51-.13-3.11-.11-3.72-1.93a6.25,6.25,0,0,1,2-5.93c1.33-1,2.78-1.76,4.2-2.6q15.3-9,30.62-17.87C335.83,161.34,338.67,162.87,338.34,165.27Z"/><polyline class="cls-17" points="321.1 399.18 288.7 380.73 213.79 423.98 138.54 380.73"/><line class="cls-18" x1="330.91" y1="219.13" x2="402.84" y2="260.66"/><polyline class="cls-19" points="415.53 282.74 385.4 300.13 439.03 331.09 347.76 383.79"/><path class="cls-20" d="M362.06,376.21l-13.48-7.78-51.44,29.68-.34-1.28H283l-9.3,2.85v11.95L296,424.51a15.38,15.38,0,0,0,15.36,0l60.68-35a4.3,4.3,0,0,0,2.17-3.75h0v-12Z"/><path class="cls-21" d="M372,370l-23.45-13.53L273.7,399.68,296,412.55a15.38,15.38,0,0,0,15.36,0l60.68-35A4.35,4.35,0,0,0,372,370Z"/><ellipse class="cls-22" cx="339.1" cy="368.91" rx="3.83" ry="2.21"/><ellipse class="cls-23" cx="339.1" cy="367.94" rx="3.83" ry="2.21"/><ellipse class="cls-22" cx="354.61" cy="377.82" rx="3.83" ry="2.21"/><ellipse class="cls-23" cx="354.61" cy="376.84" rx="3.83" ry="2.21"/><ellipse class="cls-22" cx="353.7" cy="368.07" rx="3.83" ry="2.21"/><ellipse class="cls-23" cx="353.7" cy="367.09" rx="3.83" ry="2.21"/><ellipse class="cls-22" cx="339.1" cy="377.82" rx="3.83" ry="2.21"/><ellipse class="cls-23" cx="339.1" cy="376.84" rx="3.83" ry="2.21"/><ellipse class="cls-22" cx="300.27" cy="400.06" rx="9.19" ry="5.31"/><ellipse class="cls-23" cx="300.27" cy="397.72" rx="9.19" ry="5.31"/><polyline class="cls-24" points="149.47 362.07 245.94 306.35 181.62 269.17 251.53 228.81"/><polygon class="cls-25" points="51.02 303.29 118.49 264.34 118.49 342.25 51.02 303.29"/><polygon class="cls-6" points="185.97 303.29 118.49 264.34 118.49 342.25 185.97 303.29"/><ellipse class="cls-26" cx="112.68" cy="348.81" rx="16.87" ry="7.78" transform="translate(-193.85 147.81) rotate(-38.84)"/><path class="cls-27" d="M34.5,251.72c-7.26,5.85-10.95,13.3-8.26,16.64L52.52,247.2C49.82,243.86,41.76,245.88,34.5,251.72Z"/><path class="cls-27" d="M44.26,263.84c7.25-5.84,11-13.29,8.26-16.64L26.24,268.36C28.94,271.71,37,269.69,44.26,263.84Z"/><path class="cls-28" d="M52.52,247.2c2.42,3-.84,10.64-7.37,15.9s-13.36,7.22-15.79,4.2.91-9.71,7.44-15S50.09,244.19,52.52,247.2Z"/><path class="cls-26" d="M52.52,247.2c2.69,3.35-1,10.8-8.26,16.64s-15.32,7.87-18,4.52l73.3,91,26.28-21.15Z"/><path class="cls-14" d="M69.86,295.63c-7.26,5.85-15.32,7.87-18,4.52l12.37,15.36c2.69,3.34,10.76,1.32,18-4.52s11-13.3,8.26-16.64L78.12,279C80.81,282.34,77.12,289.79,69.86,295.63Z"/><path class="cls-14" d="M79.72,307.88c-7.25,5.85-15.32,7.87-18,4.52l12.36,15.35c2.69,3.35,10.76,1.33,18-4.52s11-13.29,8.25-16.64L88,291.24C90.68,294.59,87,302,79.72,307.88Z"/><path class="cls-16" d="M74.72,301.67c-7.25,5.84-15.32,7.87-18,4.52l12.37,15.35c2.69,3.35,10.76,1.32,18-4.52s11-13.29,8.26-16.64L83,285C85.67,288.38,82,295.83,74.72,301.67Z"/><rect class="cls-29" x="124.55" y="218.05" width="2.54" height="138.2"/><polygon class="cls-30" points="114.84 211.03 125.82 217.37 125.82 242.42 114.84 236.38 114.84 211.03"/><polygon class="cls-31" points="136.79 211.03 125.82 217.37 125.82 242.42 136.79 236.38 136.79 211.03"/><rect class="cls-29" x="116.88" y="218.43" width="2.54" height="138.2" transform="translate(-56.62 30.45) rotate(-11.87)"/><polygon class="cls-30" points="91.75 215.3 103.8 219.25 108.95 243.77 96.97 240.11 91.75 215.3"/><polygon class="cls-31" points="113.23 210.79 103.8 219.25 108.95 243.77 118.45 235.59 113.23 210.79"/><rect class="cls-29" x="128.74" y="238.81" width="2.54" height="138.2" transform="translate(81.7 -22.81) rotate(14.58)"/><polygon class="cls-30" points="138.55 231.48 147.57 240.38 141.27 264.63 132.17 256.01 138.55 231.48"/><polygon class="cls-31" points="159.79 237.01 147.57 240.38 141.27 264.63 153.41 261.54 159.79 237.01"/><rect class="cls-26" x="74.49" y="237.02" width="33.74" height="116.87" transform="translate(-34.59 13.01) rotate(-6.85)"/><ellipse class="cls-27" cx="84.39" cy="237.43" rx="16.87" ry="7.78" transform="translate(-27.72 11.76) rotate(-6.85)"/><ellipse class="cls-26" cx="98.33" cy="353.47" rx="16.87" ry="7.78" transform="translate(-41.46 14.25) rotate(-6.85)"/><path class="cls-14" d="M90.19,285.69C80.94,286.8,73,284.24,72.51,280l2.35,19.57c.52,4.27,8.43,6.83,17.68,5.72s16.33-5.48,15.82-9.74L106,276C106.52,280.21,99.44,284.57,90.19,285.69Z"/><path class="cls-14" d="M92.06,301.3c-9.24,1.11-17.16-1.45-17.67-5.71l2.35,19.57c.51,4.26,8.43,6.82,17.68,5.71s16.33-5.47,15.82-9.74l-2.36-19.57C108.4,295.83,101.31,300.19,92.06,301.3Z"/><path class="cls-16" d="M91.11,293.38c-9.25,1.11-17.16-1.45-17.67-5.71l2.35,19.57c.51,4.26,8.42,6.82,17.67,5.71s16.34-5.47,15.82-9.74l-2.35-19.57C107.45,287.91,100.36,292.27,91.11,293.38Z"/><polygon class="cls-32" points="159.1 237.31 139.13 375.44 133.88 371.3 153.85 233.17 159.1 237.31"/><polygon class="cls-33" points="159.1 237.31 139.13 375.44 145.34 372.95 165.31 234.82 159.1 237.31"/><polygon class="cls-34" points="160.41 228.26 167.05 182.32 142.18 213.9 160.41 228.26"/><polygon class="cls-35" points="160.41 228.26 167.05 182.32 181.96 219.65 160.41 228.26"/><polygon class="cls-36" points="142.18 213.9 149.63 232.56 158.75 239.74 160.41 228.26 142.18 213.9"/><polygon class="cls-37" points="181.96 219.65 169.53 235.44 158.75 239.74 160.41 228.26 181.96 219.65"/><rect class="cls-38" x="125.62" y="280" width="11.2" height="17.84" transform="translate(103.19 -27.16) rotate(19.36)"/><circle class="cls-39" cx="118.49" cy="325.45" r="25.61"/><path class="cls-14" d="M111.23,346.12a21.11,21.11,0,0,0,26.92-12.92l-39.84-14A21.11,21.11,0,0,0,111.23,346.12Z"/><rect class="cls-39" x="120.48" y="289.35" width="14.11" height="20.75" transform="translate(106.56 -25.33) rotate(19.36)"/><rect class="cls-39" x="120.1" y="286.68" width="22.41" height="5.95" transform="translate(103.43 -27.15) rotate(19.36)"/><polygon class="cls-40" points="161.68 264.59 128.68 356.22 141.25 371.1 177.55 270.3 161.68 264.59"/><polygon class="cls-41" points="193.2 275.94 160.21 367.57 141.04 371.02 177.33 270.23 193.2 275.94"/><rect class="cls-38" x="162.01" y="262.7" width="33.74" height="7.83" transform="translate(100.91 -44.84) rotate(19.8)"/><rect class="cls-16" x="160.44" y="251.72" width="43.99" height="11.64" transform="matrix(0.94, 0.34, -0.34, 0.94, 98.05, -46.58)"/><rect class="cls-16" x="168.88" y="236.73" width="37.9" height="11.64" transform="translate(479.68 148.01) rotate(109.8)"/><rect class="cls-14" x="183.23" y="228.91" width="11.64" height="20.51" transform="translate(92.21 -49.91) rotate(19.8)"/><rect class="cls-38" x="189.09" y="220.93" width="11.64" height="3.92" transform="translate(87.04 -52.86) rotate(19.8)"/><polygon class="cls-42" points="118.49 342.25 185.97 303.29 185.97 381.2 118.49 420.16 118.49 342.25"/><polygon class="cls-6" points="51.02 303.29 118.49 342.25 118.49 420.16 51.02 381.2 51.02 303.29"/><polygon class="cls-4" points="135.47 398.21 163.47 414.37 163.47 446.68 135.47 430.52 135.47 398.21"/><polygon class="cls-43" points="191.45 398.21 163.47 414.37 163.47 446.68 191.45 430.52 191.45 398.21"/><polygon class="cls-44" points="163.47 382.05 135.47 398.21 163.47 414.37 191.45 398.21 163.47 382.05"/><polygon class="cls-10" points="167.12 405.16 173.17 408.65 179.22 405.16 173.17 401.67 167.12 405.16"/><polygon class="cls-45" points="173.17 415.64 173.17 408.65 179.22 405.16 179.22 412.15 173.17 415.64"/><polygon class="cls-4" points="110.29 421.41 127.54 431.36 127.54 451.27 110.29 441.31 110.29 421.41"/><polygon class="cls-43" points="144.78 421.41 127.54 431.36 127.54 451.27 144.78 441.31 144.78 421.41"/><polygon class="cls-44" points="127.54 411.45 110.29 421.41 127.54 431.36 144.78 421.41 127.54 411.45"/><polygon class="cls-10" points="127.53 424.38 121.48 427.87 115.43 424.38 121.48 420.88 127.53 424.38"/><polygon class="cls-45" points="121.48 434.86 121.48 427.87 115.43 424.38 115.43 431.36 121.48 434.86"/><polyline class="cls-46" points="470.46 267.68 594.21 194.19 511.85 145.78"/><path class="cls-6" d="M530.21,257.33l-7.29,2.32-60-34.3a9,9,0,0,0-9,0l-57.27,33.24-8.92-.71V270h.07a9,9,0,0,0,4.48,6.88l62.26,35.67a9,9,0,0,0,9,0l62.15-35.61a9,9,0,0,0,4.54-8h0Z"/><path class="cls-10" d="M392.21,249.56l61.68-35.79a9,9,0,0,1,9,0l62.73,35.85a9.05,9.05,0,0,1,0,15.71l-62.15,35.62a9,9,0,0,1-9,0l-62.26-35.68A9.05,9.05,0,0,1,392.21,249.56Z"/><path class="cls-47" d="M483.76,247.34c-2.41-2.12-6.41-3.52-11-3.52s-8.54,1.4-10.95,3.52h-2.37V252c0,4.52,6,8.18,13.32,8.18s13.33-3.66,13.33-8.18v-4.65Z"/><ellipse class="cls-48" cx="472.8" cy="247.34" rx="13.33" ry="8.17"/><path class="cls-49" d="M472.8,241.16c6.31,0,11.46,3,11.95,6.77a3.81,3.81,0,0,0,.05-.59c0-4.06-5.37-7.35-12-7.35s-12,3.29-12,7.35a3.81,3.81,0,0,0,.05.59C461.35,244.15,466.5,241.16,472.8,241.16Z"/><path class="cls-50" d="M484.57,242.69c-2.41-2.12-6.41-3.52-10.95-3.52s-8.55,1.4-11,3.52h-2.37v4.65c0,4.52,6,8.18,13.33,8.18s13.32-3.66,13.32-8.18v-4.65Z"/><ellipse class="cls-48" cx="473.62" cy="242.69" rx="13.33" ry="8.17"/><path class="cls-51" d="M473.62,236.51c6.3,0,11.45,3,11.94,6.77a3.81,3.81,0,0,0,.05-.59c0-4.06-5.37-7.35-12-7.35s-12,3.29-12,7.35a3.81,3.81,0,0,0,.05.59C462.16,239.49,467.31,236.51,473.62,236.51Z"/><path class="cls-52" d="M484.57,237.66c-2.41-2.13-6.41-3.52-10.95-3.52s-8.55,1.39-11,3.52h-2.37v4.65c0,4.52,6,8.18,13.33,8.18s13.32-3.66,13.32-8.18v-4.65Z"/><ellipse class="cls-48" cx="473.62" cy="237.66" rx="13.33" ry="8.17"/><path class="cls-53" d="M473.62,231.48c6.3,0,11.45,3,11.94,6.77a3.81,3.81,0,0,0,.05-.59c0-4.06-5.37-7.36-12-7.36s-12,3.3-12,7.36a3.81,3.81,0,0,0,.05.59C462.16,234.46,467.31,231.48,473.62,231.48Z"/><path class="cls-54" d="M483.24,233c-2.41-2.13-6.42-3.52-11-3.52s-8.54,1.39-10.95,3.52H459v4.65c0,4.52,6,8.18,13.32,8.18s13.33-3.66,13.33-8.18V233Z"/><ellipse class="cls-48" cx="472.28" cy="233.01" rx="13.33" ry="8.17"/><path class="cls-55" d="M472.28,226.83c6.3,0,11.46,3,12,6.77a5.87,5.87,0,0,0,0-.59c0-4.06-5.37-7.36-12-7.36s-12,3.3-12,7.36a3.92,3.92,0,0,0,0,.59C460.83,229.81,466,226.83,472.28,226.83Z"/><path class="cls-56" d="M484.57,228.36c-2.41-2.13-6.41-3.52-10.95-3.52s-8.55,1.39-11,3.52h-2.37V233c0,4.51,6,8.17,13.33,8.17s13.32-3.66,13.32-8.17v-4.65Z"/><ellipse class="cls-48" cx="473.62" cy="228.36" rx="13.33" ry="8.17"/><path class="cls-57" d="M473.62,222.18c6.3,0,11.45,3,11.94,6.77a3.92,3.92,0,0,0,.05-.59c0-4.06-5.37-7.36-12-7.36s-12,3.3-12,7.36a3.92,3.92,0,0,0,.05.59C462.16,225.16,467.31,222.18,473.62,222.18Z"/><path class="cls-58" d="M485.09,223.33c-2.41-2.13-6.41-3.52-10.95-3.52s-8.55,1.39-11,3.52h-2.37V228c0,4.51,6,8.17,13.33,8.17s13.32-3.66,13.32-8.17v-4.65Z"/><ellipse class="cls-48" cx="474.14" cy="223.33" rx="13.33" ry="8.17"/><path class="cls-59" d="M474.14,217.15c6.3,0,11.45,3,11.94,6.77a3.92,3.92,0,0,0,.05-.59c0-4.06-5.37-7.36-12-7.36s-12,3.3-12,7.36a5.87,5.87,0,0,0,.05.59C462.68,220.13,467.84,217.15,474.14,217.15Z"/><path class="cls-60" d="M485.09,218.33c-2.41-2.13-6.41-3.52-10.95-3.52s-8.55,1.39-11,3.52h-2.37V223c0,4.52,6,8.18,13.33,8.18s13.32-3.66,13.32-8.18v-4.65Z"/><ellipse class="cls-48" cx="474.14" cy="218.33" rx="13.33" ry="8.17"/><path class="cls-61" d="M474.14,212.15c6.3,0,11.45,3,11.94,6.77a3.81,3.81,0,0,0,.05-.59c0-4.06-5.37-7.36-12-7.36s-12,3.3-12,7.36a5.63,5.63,0,0,0,.05.59C462.68,215.13,467.84,212.15,474.14,212.15Z"/><path class="cls-62" d="M484.57,214.48c-2.41-2.13-6.41-3.52-10.95-3.52s-8.55,1.39-11,3.52h-2.37v4.65c0,4.52,6,8.18,13.33,8.18s13.32-3.66,13.32-8.18v-4.65Z"/><ellipse class="cls-48" cx="473.62" cy="214.48" rx="13.33" ry="8.17"/><path class="cls-63" d="M473.62,208.3c6.3,0,11.45,3,11.94,6.77a3.81,3.81,0,0,0,.05-.59c0-4.06-5.37-7.35-12-7.35s-12,3.29-12,7.35a3.81,3.81,0,0,0,.05.59C462.16,211.28,467.31,208.3,473.62,208.3Z"/><path class="cls-64" d="M485.09,209.83c-2.41-2.13-6.41-3.52-10.95-3.52s-8.55,1.39-11,3.52h-2.37v4.65c0,4.52,6,8.18,13.33,8.18s13.32-3.66,13.32-8.18v-4.65Z"/><ellipse class="cls-48" cx="474.14" cy="209.83" rx="13.33" ry="8.17"/><path class="cls-65" d="M474.14,203.65c6.3,0,11.45,3,11.94,6.77a3.81,3.81,0,0,0,.05-.59c0-4.06-5.37-7.36-12-7.36s-12,3.3-12,7.36a5.63,5.63,0,0,0,.05.59C462.68,206.63,467.84,203.65,474.14,203.65Z"/><path class="cls-66" d="M464.75,262.08c-2.41-2.13-6.42-3.52-11-3.52s-8.54,1.39-11,3.52h-2.37v4.65c0,4.52,6,8.18,13.32,8.18s13.33-3.66,13.33-8.18v-4.65Z"/><ellipse class="cls-48" cx="453.79" cy="262.08" rx="13.33" ry="8.17"/><path class="cls-67" d="M453.79,255.9c6.3,0,11.46,3,11.95,6.77a5.63,5.63,0,0,0,.05-.59c0-4.06-5.37-7.36-12-7.36s-12,3.3-12,7.36a3.81,3.81,0,0,0,.05.59C442.34,258.88,447.49,255.9,453.79,255.9Z"/><path class="cls-68" d="M465.21,257.29c-2.4-2.13-6.41-3.52-10.95-3.52s-8.55,1.39-10.95,3.52h-2.38v4.65c0,4.52,6,8.18,13.33,8.18s13.33-3.66,13.33-8.18v-4.65Z"/><ellipse class="cls-48" cx="454.26" cy="257.29" rx="13.33" ry="8.17"/><path class="cls-69" d="M454.26,251.11c6.3,0,11.46,3,11.95,6.77a5.63,5.63,0,0,0,.05-.59c0-4.06-5.37-7.36-12-7.36s-12,3.3-12,7.36a5.65,5.65,0,0,0,0,.59C442.81,254.09,448,251.11,454.26,251.11Z"/><path class="cls-70" d="M465.21,251.58c-2.4-2.13-6.41-3.52-10.95-3.52s-8.55,1.39-10.95,3.52h-2.38v4.65c0,4.52,6,8.18,13.33,8.18s13.33-3.66,13.33-8.18v-4.65Z"/><ellipse class="cls-48" cx="454.26" cy="251.58" rx="13.33" ry="8.17"/><path class="cls-71" d="M454.26,245.4c6.3,0,11.46,3,11.95,6.77a5.63,5.63,0,0,0,.05-.59c0-4.06-5.37-7.35-12-7.35s-12,3.29-12,7.35a5.65,5.65,0,0,0,0,.59C442.81,248.38,448,245.4,454.26,245.4Z"/><path class="cls-72" d="M465.21,246.42c-2.4-2.12-6.41-3.52-10.95-3.52s-8.55,1.4-10.95,3.52h-2.38v4.66c0,4.51,6,8.17,13.33,8.17s13.33-3.66,13.33-8.17v-4.66Z"/><ellipse class="cls-48" cx="454.26" cy="246.42" rx="13.33" ry="8.17"/><path class="cls-73" d="M454.26,240.25c6.3,0,11.46,3,11.95,6.76a5.63,5.63,0,0,0,.05-.59c0-4.06-5.37-7.35-12-7.35s-12,3.29-12,7.35a5.65,5.65,0,0,0,0,.59C442.81,243.23,448,240.25,454.26,240.25Z"/><path class="cls-74" d="M464.75,241.9c-2.41-2.13-6.42-3.52-11-3.52s-8.54,1.39-11,3.52h-2.37v4.65c0,4.52,6,8.17,13.32,8.17s13.33-3.65,13.33-8.17V241.9Z"/><ellipse class="cls-48" cx="453.79" cy="241.9" rx="13.33" ry="8.17"/><path class="cls-75" d="M453.79,235.72c6.3,0,11.46,3,11.95,6.77a5.87,5.87,0,0,0,.05-.59c0-4.06-5.37-7.36-12-7.36s-12,3.3-12,7.36a3.92,3.92,0,0,0,.05.59C442.34,238.7,447.49,235.72,453.79,235.72Z"/><path class="cls-76" d="M465.21,237c-2.4-2.12-6.41-3.52-10.95-3.52s-8.55,1.4-10.95,3.52h-2.38v4.65c0,4.52,6,8.18,13.33,8.18s13.33-3.66,13.33-8.18V237Z"/><ellipse class="cls-48" cx="454.26" cy="236.98" rx="13.33" ry="8.17"/><path class="cls-77" d="M454.26,230.8c6.3,0,11.46,3,11.95,6.77a5.63,5.63,0,0,0,.05-.59c0-4.06-5.37-7.35-12-7.35s-12,3.29-12,7.35a5.65,5.65,0,0,0,0,.59C442.81,233.78,448,230.8,454.26,230.8Z"/><path class="cls-78" d="M492.71,263.14c-2.41-2.13-6.41-3.52-10.95-3.52s-8.55,1.39-11,3.52h-2.37v4.65c0,4.52,6,8.18,13.33,8.18s13.32-3.66,13.32-8.18v-4.65Z"/><ellipse class="cls-48" cx="481.76" cy="263.14" rx="13.33" ry="8.17"/><path class="cls-79" d="M481.76,257c6.3,0,11.45,3,11.94,6.77a3.92,3.92,0,0,0,.05-.59c0-4.06-5.37-7.36-12-7.36s-12,3.3-12,7.36a3.92,3.92,0,0,0,.05.59C470.3,259.94,475.46,257,481.76,257Z"/><path class="cls-80" d="M494,257.84c-2.4-2.12-6.41-3.52-11-3.52s-8.55,1.4-10.95,3.52h-2.38v4.65c0,4.52,6,8.18,13.33,8.18s13.33-3.66,13.33-8.18v-4.65Z"/><ellipse class="cls-48" cx="483.09" cy="257.84" rx="13.33" ry="8.17"/><path class="cls-81" d="M483.09,251.66c6.3,0,11.45,3,11.94,6.77a3.81,3.81,0,0,0,.05-.59c0-4.06-5.37-7.35-12-7.35s-12,3.29-12,7.35a5.63,5.63,0,0,0,.05.59C471.63,254.64,476.79,251.66,483.09,251.66Z"/><path class="cls-82" d="M492.71,253.46c-2.41-2.13-6.41-3.53-10.95-3.53s-8.55,1.4-11,3.53h-2.37v4.65c0,4.51,6,8.17,13.33,8.17s13.32-3.66,13.32-8.17v-4.65Z"/><ellipse class="cls-48" cx="481.76" cy="253.46" rx="13.33" ry="8.17"/><path class="cls-83" d="M481.76,247.28c6.3,0,11.45,3,11.94,6.77a3.92,3.92,0,0,0,.05-.59c0-4.07-5.37-7.36-12-7.36s-12,3.29-12,7.36a3.92,3.92,0,0,0,.05.59C470.3,250.26,475.46,247.28,481.76,247.28Z"/><path class="cls-84" d="M441.42,251.57c-2.8,1.56-5.45,4.88-6.95,9.16s-1.52,8.53-.31,11.5l-.78,2.24,4.38,1.55c4.26,1.49,9.69-2.93,12.13-9.87s1-13.79-3.29-15.28l-4.39-1.54Z"/><ellipse class="cls-48" cx="437.79" cy="261.9" rx="13.33" ry="8.17" transform="translate(45.6 588.15) rotate(-70.64)"/><path class="cls-85" d="M432,259.85c2.09-5.94,6.61-9.82,10.35-9-.18-.08-.35-.17-.54-.24-3.83-1.34-8.72,2.63-10.92,8.88s-.87,12.41,3,13.76l.57.15C431,271.65,429.88,265.8,432,259.85Z"/></g></g></svg>