<svg xmlns="http://www.w3.org/2000/svg" viewBox="0 0 61.51 73.51"><defs><style>.cls-1{fill:#84efe8;}.cls-2,.cls-3{fill:none;stroke-miterlimit:10;}.cls-2{stroke:#ffd731;stroke-width:6px;}.cls-3{stroke:#ce9115;stroke-width:4px;}.cls-4{fill:#44a093;}.cls-5{fill:#54b5a9;}.cls-6{fill:#474747;opacity:0.5;}.cls-7{fill:#ce9115;}</style></defs><title>자산 10</title><g id="레이어_2" data-name="레이어 2"><g id="레이어_1-2" data-name="레이어 1"><path class="cls-1" d="M12.17,8.65v26.4a11.33,11.33,0,0,0,5.67,9.83l37,21.36a4.45,4.45,0,0,0,6.67-3.85V34.49A12.34,12.34,0,0,0,55.33,23.8l-34.69-20A5.65,5.65,0,0,0,12.17,8.65Z"/><polygon class="cls-1" points="2.75 10.48 15.61 3.46 24.67 9.67 14.73 19.2 2.75 10.48"/><polygon class="cls-1" points="47.03 72.95 59.88 65.82 57.4 57.04 42.9 57.04 47.03 72.95"/><path class="cls-2" d="M24,12.16V5.45a2.44,2.44,0,0,1,3.66-2.12l11,6.37a8.5,8.5,0,0,1,4.26,7.37v6"/><path class="cls-3" d="M21.87,12.16V5.45a2.44,2.44,0,0,1,3.66-2.12l11,6.37a8.51,8.51,0,0,1,4.25,7.37v6"/><path class="cls-4" d="M44.9,60.46,3,35.78a6,6,0,0,1-3-5.2V41.72a11.35,11.35,0,0,0,5.68,9.83l37,21.36a4.45,4.45,0,0,0,6.67-3.85V57.92A3,3,0,0,1,44.9,60.46Z"/><path class="cls-5" d="M43.17,30.46l-34.7-20A5.65,5.65,0,0,0,0,15.32v4.47L49.34,48.27V41.16A12.36,12.36,0,0,0,43.17,30.46Z"/><path class="cls-6" d="M0,31.92a6,6,0,0,0,3,5.19L44.9,61.79a2.94,2.94,0,0,0,4.44-2.54V49.61L0,21.12Z"/><path class="cls-5" d="M0,30.58a6,6,0,0,0,3,5.2L44.9,60.46a3,3,0,0,0,4.44-2.54V48.27L0,19.79Z"/><path class="cls-7" d="M15,42.58v2.81A3,3,0,0,0,16.44,48l8.6,5a1.5,1.5,0,0,0,2.25-1.29V48.72a2.81,2.81,0,0,0-1.4-2.42l-8.69-5A1.5,1.5,0,0,0,15,42.58Z"/></g></g></svg>