<svg xmlns="http://www.w3.org/2000/svg" viewBox="0 0 117.43 117.43"><defs><style>.cls-1{fill:#f6f6f6;}.cls-2{fill:#d8d8d8;}</style></defs><title>자산 27</title><g id="레이어_2" data-name="레이어 2"><g id="레이어_1-2" data-name="레이어 1"><circle class="cls-1" cx="58.72" cy="58.72" r="58.72"/><path class="cls-2" d="M101.15,87.3c-2.64-3.54-15.77-8.37-22.58-10.9-2.32-.87-3.56-1.34-4.09-1.63a53.8,53.8,0,0,1-4.08-5h-.21V66.09a29.55,29.55,0,0,0,4.71-6.87,34.37,34.37,0,0,0,1.31-6c4.13-1.86,4.62-8.44,4.8-12.12.08-1.86-.84-2-1.84-1.56,0-.34.06-.67.09-1a34.86,34.86,0,0,0,2.6-11.7c.14-6.16-2.35-12.7-7.57-16-4.86-3-11-2.79-16.73-2.43-3.22.2-6.52.43-9.41,1.83A8.38,8.38,0,0,0,43.38,18c-1.39-1.66-4.24-1.31-5.79.21S35.5,22,35.21,24.09a25,25,0,0,0,.6,10.65,16.64,16.64,0,0,0,2.35,4.76c-1-.35-1.82-.19-1.74,1.6.18,3.68.67,10.24,4.79,12.12a24,24,0,0,0,1.28,6,29.68,29.68,0,0,0,4.75,6.91v3.65H47a53.8,53.8,0,0,1-4.08,5,8.08,8.08,0,0,1-1.22.55l-2.93,1.1C32,79,18.91,83.77,16.28,87.3a25.58,25.58,0,0,0-3.56,7.88,58.67,58.67,0,0,0,92,0A25.58,25.58,0,0,0,101.15,87.3Z"/></g></g></svg>
