<svg xmlns="http://www.w3.org/2000/svg" xmlns:xlink="http://www.w3.org/1999/xlink" viewBox="0 0 121.64 122.89"><defs><style>.cls-1{fill:none;}.cls-2{fill:#f6f6f6;}.cls-3{clip-path:url(#clip-path);}.cls-4{fill:#ddd;}</style><clipPath id="clip-path"><path class="cls-1" d="M121.64,60.82a60.82,60.82,0,1,0-60.82,60.82A60.82,60.82,0,0,0,121.64,60.82Z"/></clipPath></defs><title>자산 28</title><g id="레이어_2" data-name="레이어 2"><g id="레이어_1-2" data-name="레이어 1"><path class="cls-2" d="M121.64,60.82a60.82,60.82,0,1,0-60.82,60.82A60.82,60.82,0,0,0,121.64,60.82Z"/><g class="cls-3"><path class="cls-4" d="M94.76,95.64C90.19,87,60.82,81.56,60.82,81.56S31.44,87,26.88,95.64c-3.38,12-6.21,27.25-6.21,27.25H101S99.05,106.54,94.76,95.64Z"/><path class="cls-4" d="M60.82,86.17S86,90.83,89.94,98.25c3.69,9.36,5.33,23.39,5.33,23.39H60.82Z"/><rect class="cls-4" x="52.82" y="63.98" width="15.99" height="26.77"/><rect class="cls-4" x="60.82" y="63.98" width="8" height="26.77"/><path class="cls-4" d="M54,81.73c1.23,3.54,6.21,5.57,9.87,5.57a12.23,12.23,0,0,0,3.85-.63V71.09H54Z"/><path class="cls-4" d="M81.38,47.09c0-16.72-9.21-26.23-20.56-26.23S40.26,30.37,40.26,47.09c0,22.48,9.2,30.27,20.56,30.27S81.38,68.64,81.38,47.09Z"/><path class="cls-4" d="M81.38,47.09c0-16.72-9.21-26.23-20.56-26.23v56.5C72.17,77.36,81.38,68.64,81.38,47.09Z"/><path class="cls-4" d="M94.76,95.64c-2.93-5.55-16-9.76-25.08-12.08a8.89,8.89,0,0,1-17.73,0c-9,2.32-22.15,6.53-25.07,12.08-3.38,12-6.21,27.25-6.21,27.25H101S99.05,106.54,94.76,95.64Z"/></g></g></g></svg>
