<svg xmlns="http://www.w3.org/2000/svg" xmlns:xlink="http://www.w3.org/1999/xlink" viewBox="0 0 282.35 241.85"><defs><style>.cls-1{fill:#ffe3bb;}.cls-2{fill:#a8cbe5;}.cls-3{fill:#f7f7f7;}.cls-4{fill:#90aad3;}.cls-5{fill:#c3eae6;}.cls-6{fill:#eaf4f3;}.cls-7{fill:#88d8e5;}.cls-8{fill:#d6e8e6;}.cls-9{fill:#4de2d0;}.cls-10{fill:#f2f2f2;}.cls-11{opacity:0.36;}.cls-12{fill:#5e5e5e;}.cls-12,.cls-13{stroke:#5e5e5e;}.cls-12,.cls-13,.cls-23{stroke-miterlimit:10;}.cls-13,.cls-23{fill:none;}.cls-14{fill:#fff1de;}.cls-15{fill:#3a4a9b;}.cls-16{fill:#0aedc1;}.cls-17{fill:#eefffc;}.cls-18{fill:#afafaf;}.cls-19{fill:#efefef;}.cls-20{fill:#848484;}.cls-21{fill:#d3d3d3;}.cls-22{fill:#00dbb1;}.cls-23{stroke:#f7aa23;}.cls-24{fill:url(#무제_그라디언트_20);}.cls-25{fill:#f5c634;}.cls-26{fill:url(#무제_그라디언트_20-2);}.cls-27{fill:url(#무제_그라디언트_20-3);}.cls-28{fill:url(#무제_그라디언트_20-4);}.cls-29{fill:url(#무제_그라디언트_20-5);}.cls-30{fill:#ffe97d;}.cls-31{fill:url(#무제_그라디언트_20-6);}.cls-32{fill:url(#무제_그라디언트_20-7);}.cls-33{fill:url(#무제_그라디언트_20-8);}.cls-34{fill:url(#무제_그라디언트_20-9);}.cls-35{fill:url(#무제_그라디언트_20-10);}.cls-36{fill:url(#무제_그라디언트_20-11);}.cls-37{fill:url(#무제_그라디언트_20-12);}.cls-38{fill:url(#무제_그라디언트_20-13);}.cls-39{fill:url(#무제_그라디언트_20-14);}.cls-40{fill:url(#무제_그라디언트_20-15);}.cls-41{fill:url(#무제_그라디언트_20-16);}.cls-42{fill:url(#무제_그라디언트_20-17);}.cls-43{fill:url(#무제_그라디언트_20-18);}.cls-44{fill:url(#무제_그라디언트_20-19);}.cls-45{fill:url(#무제_그라디언트_20-20);}.cls-46{fill:url(#무제_그라디언트_20-21);}.cls-47{fill:url(#무제_그라디언트_20-22);}.cls-48{fill:url(#무제_그라디언트_20-23);}.cls-49{fill:url(#무제_그라디언트_20-24);}.cls-50{fill:url(#무제_그라디언트_20-25);}.cls-51{fill:#3271cc;}.cls-52{fill:#69f;}.cls-53{fill:#7bc3ff;}.cls-54{fill:#fff;}.cls-55{fill:#f25d4e;}.cls-56{fill:#d8453d;}.cls-57{fill:#ff8773;}.cls-58{fill:#52ad17;}.cls-59{fill:#75e02f;}.cls-60{fill:#9cf967;}</style><linearGradient id="무제_그라디언트_20" x1="150.82" y1="43.46" x2="167.73" y2="43.46" gradientUnits="userSpaceOnUse"><stop offset="0.45" stop-color="#f18f19"/><stop offset="1" stop-color="#f6d76b"/></linearGradient><linearGradient id="무제_그라디언트_20-2" x1="151.66" y1="38.36" x2="166.88" y2="38.36" xlink:href="#무제_그라디언트_20"/><linearGradient id="무제_그라디언트_20-3" x1="155.25" y1="40.47" x2="163.3" y2="40.47" xlink:href="#무제_그라디언트_20"/><linearGradient id="무제_그라디언트_20-4" x1="155.03" y1="38.44" x2="157.38" y2="38.44" xlink:href="#무제_그라디언트_20"/><linearGradient id="무제_그라디언트_20-5" x1="161.17" y1="42.44" x2="163.52" y2="42.44" xlink:href="#무제_그라디언트_20"/><linearGradient id="무제_그라디언트_20-6" x1="149.44" y1="39.75" x2="166.35" y2="39.75" xlink:href="#무제_그라디언트_20"/><linearGradient id="무제_그라디언트_20-7" x1="150.29" y1="34.65" x2="165.51" y2="34.65" xlink:href="#무제_그라디언트_20"/><linearGradient id="무제_그라디언트_20-8" x1="153.87" y1="36.76" x2="161.92" y2="36.76" xlink:href="#무제_그라디언트_20"/><linearGradient id="무제_그라디언트_20-9" x1="153.65" y1="34.73" x2="156" y2="34.73" xlink:href="#무제_그라디언트_20"/><linearGradient id="무제_그라디언트_20-10" x1="159.79" y1="38.73" x2="162.14" y2="38.73" xlink:href="#무제_그라디언트_20"/><linearGradient id="무제_그라디언트_20-11" x1="151.2" y1="37.32" x2="168.11" y2="37.32" xlink:href="#무제_그라디언트_20"/><linearGradient id="무제_그라디언트_20-12" x1="152.04" y1="32.22" x2="167.26" y2="32.22" xlink:href="#무제_그라디언트_20"/><linearGradient id="무제_그라디언트_20-13" x1="155.63" y1="34.33" x2="163.68" y2="34.33" xlink:href="#무제_그라디언트_20"/><linearGradient id="무제_그라디언트_20-14" x1="155.41" y1="32.3" x2="157.76" y2="32.3" xlink:href="#무제_그라디언트_20"/><linearGradient id="무제_그라디언트_20-15" x1="161.55" y1="36.3" x2="163.9" y2="36.3" xlink:href="#무제_그라디언트_20"/><linearGradient id="무제_그라디언트_20-16" x1="149.95" y1="33.7" x2="166.86" y2="33.7" xlink:href="#무제_그라디언트_20"/><linearGradient id="무제_그라디언트_20-17" x1="150.8" y1="28.6" x2="166.02" y2="28.6" xlink:href="#무제_그라디언트_20"/><linearGradient id="무제_그라디언트_20-18" x1="154.39" y1="30.71" x2="162.43" y2="30.71" xlink:href="#무제_그라디언트_20"/><linearGradient id="무제_그라디언트_20-19" x1="154.17" y1="28.68" x2="156.51" y2="28.68" xlink:href="#무제_그라디언트_20"/><linearGradient id="무제_그라디언트_20-20" x1="160.3" y1="32.68" x2="162.65" y2="32.68" xlink:href="#무제_그라디언트_20"/><linearGradient id="무제_그라디언트_20-21" x1="566.25" y1="446.15" x2="583.15" y2="446.15" gradientTransform="translate(-16.69 -660.61) rotate(37.38)" xlink:href="#무제_그라디언트_20"/><linearGradient id="무제_그라디언트_20-22" x1="567.09" y1="441.05" x2="582.31" y2="441.05" gradientTransform="translate(-16.69 -660.61) rotate(37.38)" xlink:href="#무제_그라디언트_20"/><linearGradient id="무제_그라디언트_20-23" x1="570.68" y1="443.16" x2="578.72" y2="443.16" gradientTransform="translate(-16.69 -660.61) rotate(37.38)" xlink:href="#무제_그라디언트_20"/><linearGradient id="무제_그라디언트_20-24" x1="570.46" y1="441.13" x2="572.81" y2="441.13" gradientTransform="translate(-16.69 -660.61) rotate(37.38)" xlink:href="#무제_그라디언트_20"/><linearGradient id="무제_그라디언트_20-25" x1="576.59" y1="445.13" x2="578.94" y2="445.13" gradientTransform="translate(-16.69 -660.61) rotate(37.38)" xlink:href="#무제_그라디언트_20"/></defs><title>자산 5</title><g id="레이어_2" data-name="레이어 2"><g id="레이어_1-2" data-name="레이어 1"><path class="cls-1" d="M109.05,153.92a94.47,94.47,0,0,1,25.87,51.68,119.06,119.06,0,0,0-26.85,12,16.36,16.36,0,0,1-5.52,2.53c-3.17.56-6.32-.89-9.22-2.3-20-9.71-40.9-20.23-53.27-38.68a127.07,127.07,0,0,1-8.59-15.92c-6.15-12.83-12.35-25.77-15.78-39.58a149.66,149.66,0,0,1-3.86-29.3c-.28-6.31-.21-13.08,3.36-18.29,1.3-1.89,3.27-3.59,5.57-3.56,2.6,0,4.61,2.22,6.19,4.3a95.19,95.19,0,0,1,9.12,14.58c3.27,6.46,5.8,13.31,9.48,19.55,6.67,11.29,16.88,20.16,28.07,27s23.4,11.83,35.54,16.78"/><path class="cls-1" d="M196.58,118.49A94.58,94.58,0,0,0,241.37,155,118.51,118.51,0,0,1,259,131.43a16.5,16.5,0,0,0,3.67-4.83c1.24-3,.51-6.36-.23-9.5-5.12-21.62-10.81-44.33-26.12-60.43a127.6,127.6,0,0,0-13.66-11.86c-11.18-8.81-22.46-17.68-35.18-24a149.63,149.63,0,0,0-27.75-10.15C153.59,9,147,7.54,141.1,9.89c-2.13.86-4.22,2.41-4.69,4.65-.53,2.55,1.16,5,2.84,7a95.76,95.76,0,0,0,12.24,12.09c5.6,4.6,11.72,8.56,17,13.52,9.57,9,16,20.88,20.24,33.29s6.43,25.42,8.61,38.35"/><path class="cls-2" d="M232.17,74.9a5.25,5.25,0,0,0,0-.79L232,67.47l-7.15.47L166.38,34.28a8.33,8.33,0,0,0-8.32,0L23.51,112.15l-5.92-1.42.18,6.61h0a3.85,3.85,0,0,0,1.91,3.76l64.15,37a8.54,8.54,0,0,0,8.55,0L230,78.4a4.24,4.24,0,0,0,2.14-3.5Z"/><path class="cls-3" d="M83.66,151.41l-64.16-37a3.89,3.89,0,0,1,0-6.74L157.88,27.63a8.33,8.33,0,0,1,8.32,0l63.64,36.66a4.31,4.31,0,0,1,0,7.47L92.21,151.4A8.56,8.56,0,0,1,83.66,151.41Z"/><rect class="cls-4" x="118.62" y="133.42" width="2.92" height="11.02" rx="0.66" ry="0.66" transform="translate(59.98 312.44) rotate(-120.06)"/><rect class="cls-4" x="129.26" y="127.26" width="2.92" height="11.02" rx="0.66" ry="0.66" transform="translate(81.28 312.41) rotate(-120.06)"/><polygon class="cls-5" points="146.91 42.66 146.91 42.66 35.48 107.15 95.51 141.94 207.6 77.25 146.91 42.66"/><ellipse class="cls-2" cx="184.39" cy="50.25" rx="9.01" ry="5.43"/><polygon class="cls-5" points="146.91 42.66 146.91 42.66 35.48 107.15 95.51 141.94 207.6 77.25 146.91 42.66"/><polygon class="cls-6" points="101.66 78.32 136.11 98.21 182.04 71.69 147.59 51.8 101.66 78.32"/><polygon class="cls-7" points="106.27 80.95 106.2 80.91 152.08 54.41 147.59 51.8 101.66 78.32 106.21 80.99 106.27 80.95"/><polygon class="cls-8" points="112.16 80.8 123.64 74.17 138.72 82.87 127.22 89.5 112.16 80.8"/><polygon class="cls-9" points="134.54 93.79 134.5 93.77 145.96 87.15 140.81 84.18 129.33 90.81 134.52 93.81 134.54 93.79"/><polygon class="cls-9" points="151.63 102.82 151.56 102.78 168.83 92.81 161.07 88.33 143.77 98.32 151.59 102.84 151.63 102.82"/><polygon class="cls-9" points="173.33 90.13 173.26 90.09 190.53 80.12 182.78 75.64 165.47 85.64 173.29 90.15 173.33 90.13"/><polygon class="cls-9" points="50.44 106.57 50.4 106.55 59.47 101.31 55.4 98.96 46.31 104.21 50.42 106.58 50.44 106.57"/><polygon class="cls-9" points="61.83 99.91 61.8 99.89 70.86 94.65 66.79 92.3 57.71 97.55 61.81 99.92 61.83 99.91"/><polygon class="cls-8" points="126.6 72.27 138.09 65.64 153.16 74.34 141.66 80.96 126.6 72.27"/><polygon class="cls-9" points="148.99 85.26 148.94 85.23 160.4 78.61 155.25 75.64 143.77 82.28 148.96 85.27 148.99 85.26"/><polygon class="cls-8" points="140.58 64.36 152.06 57.73 167.13 66.43 155.63 73.05 140.58 64.36"/><polygon class="cls-9" points="162.96 77.35 162.91 77.32 174.37 70.7 169.23 67.73 157.74 74.36 162.94 77.36 162.96 77.35"/><polygon class="cls-10" points="70.09 103.33 78.69 108.37 95.88 98.29 87.32 93.26 70.09 103.33"/><polygon class="cls-10" points="82.99 107.8 95.79 100.28 108.6 107.8 95.79 115.31 82.99 107.8"/><polygon class="cls-10" points="82.03 109.3 93.67 116.07 90.33 118.03 78.52 111.36 82.03 109.3"/><polygon class="cls-10" points="101.08 97.72 112.72 104.49 109.38 106.45 97.57 99.78 101.08 97.72"/><polygon class="cls-10" points="110.77 116.72 102.83 112.1 99.32 114.16 107.35 118.7 110.77 116.72"/><polygon class="cls-10" points="115.35 113.91 107.42 109.3 103.91 111.36 111.94 115.9 115.35 113.91"/><g class="cls-11"><path class="cls-12" d="M101,47.49l19.16-11.06a1.31,1.31,0,0,0,0-2.27l-19.21-11a1.31,1.31,0,0,0-1.31,0l-19,11a1.3,1.3,0,0,0,0,2.26L99.64,47.49A1.3,1.3,0,0,0,101,47.49Z"/><path class="cls-12" d="M101,45.36l19.16-11.07a1.3,1.3,0,0,0,0-2.26L100.91,21a1.33,1.33,0,0,0-1.31,0l-19,11a1.3,1.3,0,0,0,0,2.26L99.64,45.35A1.32,1.32,0,0,0,101,45.36Z"/><polygon class="cls-12" points="100.35 11.88 100.35 28.76 93.2 24.64 100.35 11.88"/><polygon class="cls-12" points="100.35 11.88 100.35 28.76 107.49 24.64 100.35 11.88"/><polygon class="cls-12" points="100.35 35.76 100.35 28.76 93.2 24.64 100.35 35.76"/><polygon class="cls-12" points="100.35 35.76 100.35 28.76 107.49 24.64 100.35 35.76"/><polygon class="cls-12" points="93.2 21.85 93.2 32.27 88.8 29.73 93.2 21.85"/><polygon class="cls-12" points="93.2 21.85 93.2 32.27 97.61 29.73 93.2 21.85"/><polygon class="cls-12" points="93.2 36.6 93.2 32.27 88.8 29.73 93.2 36.6"/><polygon class="cls-12" points="93.2 36.6 93.2 32.27 97.61 29.73 93.2 36.6"/><polygon class="cls-12" points="109.71 23.46 109.71 30.2 106.86 28.55 109.71 23.46"/><polygon class="cls-12" points="109.71 23.46 109.71 30.2 112.57 28.55 109.71 23.46"/><polygon class="cls-12" points="109.71 32.99 109.71 30.2 106.86 28.55 109.71 32.99"/><polygon class="cls-12" points="109.71 32.99 109.71 30.2 112.57 28.55 109.71 32.99"/><polygon class="cls-12" points="96.95 40.82 98.99 39.65 99.67 40.04 97.63 41.22 96.95 40.82"/><polygon class="cls-12" points="96.95 41.61 97.63 41.22 99.67 42.4 98.99 42.79 96.95 41.61"/><polygon class="cls-12" points="100.35 42.79 102.39 41.61 101.71 41.22 99.67 42.4 100.35 42.79"/><polygon class="cls-12" points="98.31 41.61 100.35 40.43 101.03 40.82 98.99 42 98.31 41.61"/><polygon class="cls-12" points="99.67 39.25 98.99 39.65 99.67 40.04 100.35 39.65 99.67 39.25"/><polygon class="cls-12" points="101.71 41.22 102.39 40.82 103.07 41.22 102.39 41.61 101.71 41.22"/><polygon class="cls-12" points="100.35 38.86 101.04 39.25 102.39 38.47 105.11 40.04 105.79 39.65 103.07 38.08 104.43 37.29 103.75 36.9 100.35 38.86"/><polygon class="cls-12" points="104.43 36.5 107.83 38.47 108.51 38.08 107.15 37.29 109.19 36.11 110.55 36.9 111.23 36.5 107.83 34.54 107.15 34.93 108.51 35.72 106.47 36.9 105.11 36.11 104.43 36.5"/><line class="cls-12" x1="146.01" y1="57" x2="115.04" y2="37.98"/><polyline class="cls-13" points="90.03 40.82 75.1 48.94 91 57.58 75.88 65.8"/><path class="cls-12" d="M167.7,77.25l27.55-15.9a1.88,1.88,0,0,0,0-3.26l-27.6-15.88a1.91,1.91,0,0,0-1.88,0L138.41,58a1.88,1.88,0,0,0,0,3.25l27.41,16A1.88,1.88,0,0,0,167.7,77.25Z"/><path class="cls-12" d="M167.7,74.18l27.55-15.9a1.88,1.88,0,0,0,0-3.26l-27.6-15.88a1.88,1.88,0,0,0-1.88,0L138.41,54.93a1.89,1.89,0,0,0,0,3.26l27.41,16A1.88,1.88,0,0,0,167.7,74.18Z"/><path class="cls-12" d="M167.27,52.39a11.95,11.95,0,0,0-13.9,0h-1.5v3c0,2.87,3.78,5.19,8.45,5.19s8.46-2.32,8.46-5.19v-3Z"/><ellipse class="cls-12" cx="160.32" cy="52.39" rx="8.45" ry="5.19"/><path class="cls-12" d="M160.32,48.47c4,0,7.27,1.89,7.58,4.3a2.43,2.43,0,0,0,0-.38c0-2.57-3.41-4.66-7.61-4.66s-7.61,2.09-7.61,4.66c0,.13,0,.25,0,.38C153.06,50.36,156.33,48.47,160.32,48.47Z"/><path class="cls-12" d="M159.06,49.85l-2.43,1.4a.65.65,0,0,0,0,1.13l4.31,2.49a.63.63,0,0,0,.65,0L164,53.46a.66.66,0,0,0,0-1.13l-4.31-2.48A.63.63,0,0,0,159.06,49.85Z"/><path class="cls-12" d="M158.35,49.93l-1.95,1.13a.2.2,0,0,1-.15,0l-.1-.06a.15.15,0,0,1,0-.26l1.92-1.14a.16.16,0,0,1,.15,0l.13.08A.15.15,0,0,1,158.35,49.93Z"/><path class="cls-12" d="M164.49,53.93l-2,1.13a.14.14,0,0,1-.15,0l-.1-.06a.15.15,0,0,1,0-.26l1.92-1.14a.14.14,0,0,1,.15,0l.13.07A.15.15,0,0,1,164.49,53.93Z"/><path class="cls-12" d="M159.84,50.88l-1,.56a0,0,0,0,1-.07,0l0,0a.08.08,0,0,1,0-.13l1-.58h.07l.07,0A.08.08,0,0,1,159.84,50.88Z"/><path class="cls-12" d="M159.08,52.21l-.15.63s0,0,0,0h0s-.06,0-.06-.08l.14-.63s0,0,0,0h0A.08.08,0,0,1,159.08,52.21Z"/><path class="cls-12" d="M159.75,52.85h-.87s0,0,0,0l0,0a.07.07,0,0,1,.07-.09l.86,0s0,0,0,0l0,0A.08.08,0,0,1,159.75,52.85Z"/><path class="cls-12" d="M162.63,52.47l-1,.56a0,0,0,0,1-.07,0l-.05,0a.08.08,0,0,1,0-.13l1-.58h.07l.07,0A.08.08,0,0,1,162.63,52.47Z"/><path class="cls-12" d="M165.89,48.68a11.93,11.93,0,0,0-13.89,0h-1.51v3c0,2.87,3.79,5.19,8.46,5.19s8.45-2.32,8.45-5.19v-3Z"/><ellipse class="cls-12" cx="158.95" cy="48.68" rx="8.45" ry="5.19"/><path class="cls-12" d="M159,44.76c4,0,7.26,1.89,7.57,4.3a2.43,2.43,0,0,0,0-.38c0-2.58-3.4-4.66-7.6-4.66s-7.61,2.08-7.61,4.66a2.43,2.43,0,0,0,0,.38C151.68,46.65,155,44.76,159,44.76Z"/><path class="cls-12" d="M157.69,46.14l-2.44,1.4a.66.66,0,0,0,0,1.13l4.31,2.49a.63.63,0,0,0,.65,0l2.43-1.41a.65.65,0,0,0,0-1.13l-4.3-2.48A.63.63,0,0,0,157.69,46.14Z"/><path class="cls-12" d="M157,46.22l-2,1.13a.19.19,0,0,1-.15,0l-.09-.06a.15.15,0,0,1,0-.26l1.91-1.14a.18.18,0,0,1,.16,0L157,46A.15.15,0,0,1,157,46.22Z"/><path class="cls-12" d="M163.11,50.22l-2,1.13a.14.14,0,0,1-.15,0l-.09-.06a.15.15,0,0,1,0-.26l1.92-1.14a.14.14,0,0,1,.15,0l.13.07A.15.15,0,0,1,163.11,50.22Z"/><path class="cls-12" d="M158.46,47.17l-1,.56a0,0,0,0,1-.07,0l0,0a.08.08,0,0,1,0-.13l1-.58h.08l.06,0A.08.08,0,0,1,158.46,47.17Z"/><path class="cls-12" d="M157.7,48.5l-.14.63,0,0h0a.06.06,0,0,1-.05-.08l.13-.63s0,0,0,0h0A.07.07,0,0,1,157.7,48.5Z"/><path class="cls-12" d="M158.37,49.14h-.86a.05.05,0,0,1,0,0v0a.07.07,0,0,1,.06-.09l.86,0a.05.05,0,0,1,0,0l0,0A.08.08,0,0,1,158.37,49.14Z"/><path class="cls-12" d="M161.25,48.76l-1,.56a0,0,0,0,1-.07,0l0,0a.07.07,0,0,1,0-.13l1-.58a.11.11,0,0,1,.08,0l.06,0A.08.08,0,0,1,161.25,48.76Z"/><path class="cls-12" d="M167.65,46.25a11.95,11.95,0,0,0-13.9,0h-1.5v3c0,2.86,3.78,5.19,8.45,5.19s8.46-2.33,8.46-5.19v-3Z"/><ellipse class="cls-12" cx="160.7" cy="46.25" rx="8.45" ry="5.19"/><path class="cls-12" d="M160.7,42.33c4,0,7.27,1.89,7.58,4.29a2.22,2.22,0,0,0,0-.37c0-2.58-3.41-4.67-7.61-4.67s-7.61,2.09-7.61,4.67c0,.13,0,.25,0,.37C153.43,44.22,156.7,42.33,160.7,42.33Z"/><path class="cls-12" d="M159.44,43.7,157,45.11a.66.66,0,0,0,0,1.13l4.32,2.49a.68.68,0,0,0,.65,0l2.43-1.41a.66.66,0,0,0,0-1.13l-4.31-2.49A.68.68,0,0,0,159.44,43.7Z"/><path class="cls-12" d="M158.73,43.79l-1.95,1.13a.2.2,0,0,1-.15,0l-.1-.06a.15.15,0,0,1,0-.26l1.92-1.15a.2.2,0,0,1,.15,0l.13.08A.15.15,0,0,1,158.73,43.79Z"/><path class="cls-12" d="M164.87,47.79l-2,1.13a.19.19,0,0,1-.15,0l-.1-.06a.15.15,0,0,1,0-.26l1.92-1.14a.16.16,0,0,1,.15,0l.13.08A.15.15,0,0,1,164.87,47.79Z"/><path class="cls-12" d="M160.22,44.74l-1,.56a0,0,0,0,1-.07,0l0,0a.07.07,0,0,1,0-.13l1-.57h.07l.07,0A.08.08,0,0,1,160.22,44.74Z"/><path class="cls-12" d="M159.46,46.07l-.15.63s0,0,0,0h0s-.06,0-.06-.08l.13-.63s0,0,0,0h0S159.46,46,159.46,46.07Z"/><path class="cls-12" d="M160.13,46.71h-.87s0,0,0,0l0,0a.09.09,0,0,1,.07-.1l.86,0s0,0,0,0l0,0S160.17,46.7,160.13,46.71Z"/><path class="cls-12" d="M163,46.33l-1,.56H162l-.05,0a.08.08,0,0,1,0-.13l1-.57h.07l.07,0A.08.08,0,0,1,163,46.33Z"/><path class="cls-12" d="M166.41,42.63a11.9,11.9,0,0,0-13.9,0H151v2.95c0,2.86,3.79,5.18,8.46,5.18s8.45-2.32,8.45-5.18V42.63Z"/><ellipse class="cls-12" cx="159.46" cy="42.63" rx="8.45" ry="5.19"/><path class="cls-12" d="M159.46,38.71c4,0,7.27,1.89,7.58,4.29,0-.12,0-.25,0-.37,0-2.58-3.41-4.67-7.61-4.67s-7.61,2.09-7.61,4.67a2.31,2.31,0,0,0,0,.37C152.19,40.6,155.46,38.71,159.46,38.71Z"/><path class="cls-12" d="M158.2,40.08l-2.44,1.41a.65.65,0,0,0,0,1.12l4.31,2.5a.7.7,0,0,0,.66,0l2.43-1.42a.65.65,0,0,0,0-1.12l-4.31-2.49A.68.68,0,0,0,158.2,40.08Z"/><path class="cls-12" d="M157.49,40.17l-2,1.12a.14.14,0,0,1-.15,0l-.1,0a.15.15,0,0,1,0-.26l1.92-1.15a.14.14,0,0,1,.15,0l.13.08A.15.15,0,0,1,157.49,40.17Z"/><path class="cls-12" d="M163.63,44.17l-2,1.13a.19.19,0,0,1-.15,0l-.09-.06a.15.15,0,0,1,0-.26l1.91-1.15a.18.18,0,0,1,.16,0l.13.08A.15.15,0,0,1,163.63,44.17Z"/><path class="cls-12" d="M159,41.12l-1,.56h-.08l0,0a.08.08,0,0,1,0-.13l1-.57a.06.06,0,0,1,.08,0l.06,0A.07.07,0,0,1,159,41.12Z"/><path class="cls-12" d="M158.21,42.44l-.14.64s0,0,0,0h0A.07.07,0,0,1,158,43l.13-.63a0,0,0,0,1,0,0h0A.06.06,0,0,1,158.21,42.44Z"/><path class="cls-12" d="M158.88,43.08l-.86,0a.05.05,0,0,1-.05,0v0a.08.08,0,0,1,.06-.1l.86,0a.05.05,0,0,1,.05,0l0,.06A.07.07,0,0,1,158.88,43.08Z"/><path class="cls-12" d="M161.76,42.71l-1,.56h-.08l-.05,0a.08.08,0,0,1,0-.13l1-.57a.06.06,0,0,1,.08,0l.06,0A.08.08,0,0,1,161.76,42.71Z"/><path class="cls-12" d="M177.51,56.56a11.9,11.9,0,0,0-11-8.43l-1.2-.92-1.79,2.35c-1.74,2.27-.14,6.42,3.57,9.25s8.13,3.29,9.87,1l1.79-2.34Z"/><ellipse class="cls-12" cx="171.99" cy="52.35" rx="5.19" ry="8.45" transform="translate(25.98 157.24) rotate(-52.62)"/><path class="cls-12" d="M174.37,49.23c3.18,2.43,4.63,5.92,3.42,8A3.32,3.32,0,0,0,178,57c1.56-2,.12-5.78-3.22-8.33s-7.31-3-8.88-.91a3.28,3.28,0,0,0-.2.31C167.45,46.32,171.19,46.81,174.37,49.23Z"/><path class="cls-12" d="M172.53,49.56l-2.79-.36a.65.65,0,0,0-.68.89l1.92,4.6a.65.65,0,0,0,.51.39l2.79.36a.65.65,0,0,0,.68-.9L173.05,50A.66.66,0,0,0,172.53,49.56Z"/><path class="cls-12" d="M171.92,49.19l-2.24-.29a.14.14,0,0,1-.12-.09l0-.1a.16.16,0,0,1,.16-.21l2.22.26a.14.14,0,0,1,.12.09l.06.14A.15.15,0,0,1,171.92,49.19Z"/><path class="cls-12" d="M174.37,56.1l-2.24-.29a.16.16,0,0,1-.12-.09l0-.1a.15.15,0,0,1,.16-.21l2.22.25a.16.16,0,0,1,.12.09l.06.14A.16.16,0,0,1,174.37,56.1Z"/><path class="cls-12" d="M172.52,50.85l-1.12-.14-.06-.05,0,0a.07.07,0,0,1,.08-.1l1.11.12a.06.06,0,0,1,.06,0l0,.07A.07.07,0,0,1,172.52,50.85Z"/><path class="cls-12" d="M171.11,51.44l-.5.42h0l0,0a.09.09,0,0,1,0-.1l.49-.42h0l0,0A.06.06,0,0,1,171.11,51.44Z"/><path class="cls-12" d="M171.26,52.36l-.7-.51a.07.07,0,0,1,0-.06l0,0a.07.07,0,0,1,.11,0l.7.5a0,0,0,0,1,0,.05v0S171.29,52.39,171.26,52.36Z"/><path class="cls-12" d="M173.78,53.81l-1.12-.15a.07.07,0,0,1-.06,0l0,0a.08.08,0,0,1,.07-.11l1.11.13a.08.08,0,0,1,.07,0l0,.07A.08.08,0,0,1,173.78,53.81Z"/><polygon class="cls-12" points="168.63 67.13 171.16 68.59 172 68.11 169.47 66.64 168.63 67.13"/><polygon class="cls-12" points="168.63 66.16 169.47 66.64 172 65.18 171.16 64.69 168.63 66.16"/><polygon class="cls-12" points="173.69 65.18 172.85 65.67 172 65.18 172.85 64.69 173.69 65.18"/><polygon class="cls-12" points="172.85 68.59 172 68.11 174.54 66.64 175.38 67.13 172.85 68.59"/><polygon class="cls-12" points="174.54 65.67 173.69 66.16 174.54 66.64 175.38 66.16 174.54 65.67"/><polygon class="cls-12" points="173.69 64.2 174.54 63.72 177.07 65.18 176.23 65.67 173.69 64.2"/><polygon class="cls-12" points="173.69 63.23 174.54 63.72 177.07 62.25 176.23 61.77 173.69 63.23"/><polygon class="cls-12" points="177.92 61.77 177.07 62.25 177.92 62.74 178.76 62.25 177.92 61.77"/><polygon class="cls-12" points="179.61 63.72 177.07 65.18 177.92 65.67 180.45 64.2 179.61 63.72"/><polygon class="cls-12" points="179.61 62.74 178.76 63.23 179.61 63.72 180.45 63.23 179.61 62.74"/><polygon class="cls-12" points="163.56 69.08 166.09 67.62 166.94 68.11 164.4 69.57 163.56 69.08"/><polygon class="cls-12" points="163.56 70.06 164.4 69.57 166.94 71.03 166.09 71.52 163.56 70.06"/><polygon class="cls-12" points="167.78 71.52 166.94 71.03 169.47 69.57 170.31 70.06 167.78 71.52"/><polygon class="cls-12" points="168.63 69.08 169.47 69.57 170.31 69.08 169.47 68.59 168.63 69.08"/><polygon class="cls-12" points="167.78 69.57 169.47 68.59 168.63 68.11 166.94 69.08 167.78 69.57"/><polygon class="cls-12" points="166.94 67.13 166.09 67.62 166.94 68.11 167.78 67.62 166.94 67.13"/><line class="cls-12" x1="144.71" y1="63.59" x2="108.29" y2="84.73"/><path class="cls-12" d="M60.81,125.47,115.25,94a3.72,3.72,0,0,0,0-6.44L60.68,56.21a3.72,3.72,0,0,0-3.71,0L2.91,87.43a3.72,3.72,0,0,0,0,6.43l54.19,31.6A3.74,3.74,0,0,0,60.81,125.47Z"/><path class="cls-12" d="M60.81,119.39,115.25,88a3.72,3.72,0,0,0,0-6.44L60.68,50.13a3.7,3.7,0,0,0-3.71,0L2.91,81.35a3.72,3.72,0,0,0,0,6.43l54.19,31.6A3.71,3.71,0,0,0,60.81,119.39Z"/><polygon class="cls-12" points="35.44 54.12 54.21 64.94 54.21 86.6 35.44 75.77 35.44 54.12"/><polygon class="cls-12" points="72.96 54.12 54.21 64.94 54.21 86.6 72.96 75.77 72.96 54.12"/><polygon class="cls-12" points="54.21 43.28 35.44 54.12 54.21 64.94 72.96 54.12 54.21 43.28"/><polygon class="cls-12" points="56.65 58.77 60.71 61.11 64.77 58.77 60.71 56.43 56.65 58.77"/><polygon class="cls-12" points="60.71 65.8 60.71 61.11 64.77 58.77 64.77 63.45 60.71 65.8"/><polygon class="cls-12" points="82.46 77.54 67.5 86.17 67.5 103.44 82.46 94.8 82.46 77.54"/><polygon class="cls-12" points="52.55 77.54 67.5 86.17 67.5 103.44 52.55 94.8 52.55 77.54"/><polygon class="cls-12" points="67.5 68.9 82.46 77.54 67.5 86.17 52.55 77.54 67.5 68.9"/><polygon class="cls-12" points="65.55 81.25 62.31 83.12 59.08 81.25 62.31 79.38 65.55 81.25"/><polygon class="cls-12" points="62.31 86.85 62.31 83.12 59.08 81.25 59.08 84.98 62.31 86.85"/><polygon class="cls-12" points="27.76 81.32 38.18 87.33 38.18 99.35 27.76 93.34 27.76 81.32"/><polygon class="cls-12" points="48.59 81.32 38.18 87.33 38.18 99.35 48.59 93.34 48.59 81.32"/><polygon class="cls-12" points="38.18 75.3 27.76 81.32 38.18 87.33 48.59 81.32 38.18 75.3"/><polygon class="cls-12" points="39.53 83.9 41.79 85.2 44.04 83.9 41.79 82.6 39.53 83.9"/><polygon class="cls-12" points="41.79 87.8 41.79 85.2 44.04 83.9 44.04 86.5 41.79 87.8"/><polygon class="cls-12" points="53.05 113.99 54.21 114.66 55.37 115.33 56.53 116 57.7 116.67 58.85 117.34 60.02 116.67 54.21 113.31 53.05 113.99"/><polygon class="cls-12" points="57.7 111.31 54.21 113.31 55.38 113.99 58.85 111.98 57.7 111.31"/><polygon class="cls-12" points="60.02 111.31 58.85 111.98 60.02 112.65 61.18 111.98 60.02 111.31"/><polygon class="cls-12" points="57.71 115.33 61.17 113.32 62.31 113.98 58.86 116 57.71 115.33"/><polygon class="cls-12" points="62.33 112.65 61.17 113.32 60.02 112.65 61.18 111.98 62.33 112.65"/><polygon class="cls-12" points="61.19 110.63 62.35 109.96 66.99 112.64 65.83 113.31 61.19 110.63"/><polygon class="cls-12" points="61.19 109.29 64.67 107.28 65.83 107.95 62.35 109.96 61.19 109.29"/><polygon class="cls-12" points="66.99 107.28 65.83 107.95 70.47 110.63 71.63 109.96 66.99 107.28"/><polygon class="cls-12" points="64.67 111.3 68.15 109.29 69.31 109.96 65.83 111.97 64.67 111.3"/><polygon class="cls-12" points="66.99 105.94 72.8 109.29 73.96 108.62 68.16 105.27 66.99 105.94"/><polygon class="cls-12" points="71.64 103.26 68.16 105.27 69.31 105.94 72.8 103.93 71.64 103.26"/><polygon class="cls-12" points="73.96 103.26 72.8 103.93 75.12 105.27 76.28 104.6 73.96 103.26"/><polygon class="cls-12" points="76.28 105.94 72.8 107.95 71.63 107.28 75.12 105.27 76.28 105.94"/><polygon class="cls-12" points="77.44 106.61 76.28 105.94 77.44 105.27 78.6 105.94 77.44 106.61"/><polygon class="cls-12" points="73.96 101.9 79.75 98.55 80.9 99.22 75.11 102.57 73.96 101.9"/><polygon class="cls-12" points="82.08 103.91 77.42 101.23 78.58 100.56 83.23 103.24 82.08 103.91"/></g><rect class="cls-1" x="82.09" y="122.26" width="24.67" height="60.16" transform="translate(-62.37 65.52) rotate(-29.23)"/><ellipse class="cls-1" cx="79.74" cy="126.11" rx="12.34" ry="12.09" transform="translate(-51.43 55) rotate(-29.23)"/><circle class="cls-14" cx="79.99" cy="126.55" r="9.37"/><path class="cls-15" d="M233,150.63a42.36,42.36,0,0,1,27.57-31.39,12.05,12.05,0,0,1,4.88-.81c2.55.23,4.75,1.8,6.81,3.31l10.11,7.43a125.67,125.67,0,0,0-25.12,35.07,2.17,2.17,0,0,1-.89,1.12,2.1,2.1,0,0,1-1.42,0,88.41,88.41,0,0,1-22.74-8.83l1.31-5.44"/><path class="cls-16" d="M99.91,35.61l19.16-11.06a1.31,1.31,0,0,0,0-2.27l-19.21-11a1.29,1.29,0,0,0-1.3,0l-19,11a1.31,1.31,0,0,0,0,2.27L98.59,35.61A1.32,1.32,0,0,0,99.91,35.61Z"/><path class="cls-17" d="M99.91,33.47l19.16-11.06a1.31,1.31,0,0,0,0-2.27L99.86,9.1a1.26,1.26,0,0,0-1.3,0l-19,11a1.31,1.31,0,0,0,0,2.27L98.59,33.47A1.3,1.3,0,0,0,99.91,33.47Z"/><polygon class="cls-18" points="99.3 0 99.3 16.88 92.16 12.75 99.3 0"/><polygon class="cls-19" points="99.3 0 99.3 16.88 106.44 12.75 99.3 0"/><polygon class="cls-20" points="99.3 23.88 99.3 16.88 92.16 12.75 99.3 23.88"/><polygon class="cls-21" points="99.3 23.88 99.3 16.88 106.44 12.75 99.3 23.88"/><polygon class="cls-18" points="92.16 9.97 92.16 20.39 87.75 17.84 92.16 9.97"/><polygon class="cls-19" points="92.16 9.97 92.16 20.39 96.57 17.84 92.16 9.97"/><polygon class="cls-20" points="92.16 24.72 92.16 20.39 87.75 17.84 92.16 24.72"/><polygon class="cls-21" points="92.16 24.72 92.16 20.39 96.57 17.84 92.16 24.72"/><polygon class="cls-18" points="108.67 11.57 108.67 18.31 105.81 16.67 108.67 11.57"/><polygon class="cls-19" points="108.67 11.57 108.67 18.31 111.52 16.67 108.67 11.57"/><polygon class="cls-20" points="108.67 21.11 108.67 18.31 105.81 16.67 108.67 21.11"/><polygon class="cls-21" points="108.67 21.11 108.67 18.31 111.52 16.67 108.67 21.11"/><polygon class="cls-22" points="95.9 28.94 97.94 27.76 98.62 28.16 96.58 29.33 95.9 28.94"/><polygon class="cls-22" points="95.9 29.73 96.58 29.33 98.62 30.51 97.94 30.9 95.9 29.73"/><polygon class="cls-22" points="99.3 30.9 101.34 29.73 100.66 29.33 98.62 30.51 99.3 30.9"/><polygon class="cls-22" points="97.26 29.73 99.3 28.55 99.98 28.94 97.94 30.12 97.26 29.73"/><polygon class="cls-22" points="98.62 27.37 97.94 27.76 98.62 28.16 99.3 27.76 98.62 27.37"/><polygon class="cls-22" points="100.66 29.33 101.34 28.94 102.02 29.33 101.34 29.73 100.66 29.33"/><polygon class="cls-22" points="99.3 26.98 100 27.37 101.34 26.58 104.06 28.16 104.74 27.76 102.02 26.19 103.38 25.41 102.7 25.01 99.3 26.98"/><polygon class="cls-22" points="103.38 24.62 106.78 26.58 107.46 26.19 106.1 25.41 108.14 24.23 109.5 25.01 110.18 24.62 106.78 22.66 106.1 23.05 107.46 23.84 105.42 25.01 104.06 24.23 103.38 24.62"/><line class="cls-23" x1="144.96" y1="45.12" x2="113.99" y2="26.09"/><polyline class="cls-23" points="88.98 28.94 74.06 37.05 89.95 45.7 74.83 53.91"/><path class="cls-16" d="M166.65,65.37l27.55-15.9a1.88,1.88,0,0,0,0-3.26l-27.6-15.88a1.91,1.91,0,0,0-1.88,0L137.36,46.12a1.89,1.89,0,0,0,0,3.26l27.42,16A1.86,1.86,0,0,0,166.65,65.37Z"/><path class="cls-17" d="M166.65,62.29l27.55-15.9a1.88,1.88,0,0,0,0-3.26l-27.6-15.87a1.86,1.86,0,0,0-1.88,0L137.36,43.05a1.88,1.88,0,0,0,0,3.25l27.42,16A1.86,1.86,0,0,0,166.65,62.29Z"/><path class="cls-24" d="M166.22,40.51a11.9,11.9,0,0,0-13.9,0h-1.5v3c0,2.86,3.78,5.19,8.45,5.19s8.46-2.33,8.46-5.19v-3Z"/><ellipse class="cls-25" cx="159.27" cy="40.51" rx="8.45" ry="5.19"/><path class="cls-26" d="M159.27,36.59c4,0,7.27,1.89,7.58,4.29a2.22,2.22,0,0,0,0-.37c0-2.58-3.4-4.67-7.61-4.67s-7.61,2.09-7.61,4.67c0,.13,0,.25,0,.37C152,38.48,155.28,36.59,159.27,36.59Z"/><path class="cls-27" d="M158,38l-2.43,1.41a.65.65,0,0,0,0,1.13L159.89,43a.68.68,0,0,0,.65,0L163,41.57a.65.65,0,0,0,0-1.12L158.66,38A.68.68,0,0,0,158,38Z"/><path class="cls-28" d="M157.3,38.05l-2,1.12a.14.14,0,0,1-.15,0l-.09-.05a.15.15,0,0,1,0-.26L157,37.71a.14.14,0,0,1,.15,0l.13.08A.15.15,0,0,1,157.3,38.05Z"/><path class="cls-29" d="M163.44,42.05l-1.95,1.13a.19.19,0,0,1-.15,0l-.1-.06a.15.15,0,0,1,0-.26l1.92-1.15a.2.2,0,0,1,.15,0l.13.08A.15.15,0,0,1,163.44,42.05Z"/><path class="cls-30" d="M158.79,39l-1,.56h-.07l-.05,0a.08.08,0,0,1,0-.13l1-.57h.07l.07,0A.08.08,0,0,1,158.79,39Z"/><path class="cls-30" d="M158,40.32l-.15.64s0,0,0,0h0s-.06,0-.06-.08l.14-.63s0,0,0,0h0S158,40.29,158,40.32Z"/><path class="cls-30" d="M158.7,41l-.87,0s0,0,0,0l0,0a.08.08,0,0,1,.07-.1l.86,0s0,0,0,0l0,.06A.07.07,0,0,1,158.7,41Z"/><path class="cls-30" d="M161.58,40.59l-1,.56h-.07l-.05,0a.08.08,0,0,1,0-.13l1-.57a0,0,0,0,1,.07,0l.07,0A.07.07,0,0,1,161.58,40.59Z"/><path class="cls-31" d="M164.84,36.8a11.89,11.89,0,0,0-13.89,0h-1.51v3c0,2.86,3.79,5.18,8.46,5.18s8.45-2.32,8.45-5.18v-3Z"/><ellipse class="cls-25" cx="157.9" cy="36.8" rx="8.45" ry="5.19"/><path class="cls-32" d="M157.9,32.88c4,0,7.26,1.89,7.57,4.29a2.21,2.21,0,0,0,0-.37c0-2.58-3.41-4.67-7.61-4.67s-7.61,2.09-7.61,4.67a2.22,2.22,0,0,0,0,.37C150.63,34.77,153.9,32.88,157.9,32.88Z"/><path class="cls-33" d="M156.64,34.25l-2.44,1.41a.66.66,0,0,0,0,1.13l4.31,2.49a.68.68,0,0,0,.65,0l2.44-1.42a.64.64,0,0,0,0-1.12l-4.3-2.49A.68.68,0,0,0,156.64,34.25Z"/><path class="cls-34" d="M155.93,34.34l-2,1.12a.14.14,0,0,1-.15,0l-.09-.05a.15.15,0,0,1,0-.26L155.64,34a.15.15,0,0,1,.16,0l.13.08A.15.15,0,0,1,155.93,34.34Z"/><path class="cls-35" d="M162.06,38.34l-1.95,1.13a.19.19,0,0,1-.15,0l-.09-.06a.15.15,0,0,1,0-.26L161.78,38a.19.19,0,0,1,.15,0l.13.08A.15.15,0,0,1,162.06,38.34Z"/><path class="cls-30" d="M157.41,35.29l-1,.56h-.08l-.05,0a.08.08,0,0,1,0-.13l1-.57h.08l.06,0A.08.08,0,0,1,157.41,35.29Z"/><path class="cls-30" d="M156.65,36.61l-.14.64,0,0h0a.07.07,0,0,1-.06-.08l.13-.63a0,0,0,0,1,0,0h0A.06.06,0,0,1,156.65,36.61Z"/><path class="cls-30" d="M157.32,37.25l-.86,0a.05.05,0,0,1-.05,0v0a.08.08,0,0,1,.06-.1l.86,0a.05.05,0,0,1,.05,0l0,.06A.07.07,0,0,1,157.32,37.25Z"/><path class="cls-30" d="M160.2,36.88l-1,.56a.11.11,0,0,1-.08,0l-.05,0a.08.08,0,0,1,0-.13l1-.57a.06.06,0,0,1,.08,0l.06,0A.07.07,0,0,1,160.2,36.88Z"/><path class="cls-36" d="M166.6,34.37a11.9,11.9,0,0,0-13.9,0h-1.5v3c0,2.86,3.78,5.18,8.45,5.18s8.46-2.32,8.46-5.18v-3Z"/><ellipse class="cls-25" cx="159.65" cy="34.37" rx="8.45" ry="5.19"/><path class="cls-37" d="M159.65,30.45c4,0,7.27,1.89,7.58,4.29a2.31,2.31,0,0,0,0-.37c0-2.58-3.41-4.67-7.61-4.67S152,31.79,152,34.37c0,.12,0,.25,0,.37C152.38,32.34,155.66,30.45,159.65,30.45Z"/><path class="cls-38" d="M158.39,31.82,156,33.23a.65.65,0,0,0,0,1.12l4.32,2.49a.63.63,0,0,0,.65,0l2.43-1.41a.65.65,0,0,0,0-1.12L159,31.82A.68.68,0,0,0,158.39,31.82Z"/><path class="cls-39" d="M157.68,31.91l-2,1.12a.14.14,0,0,1-.15,0l-.1-.05a.15.15,0,0,1,0-.26l1.92-1.15a.14.14,0,0,1,.15,0l.13.07A.16.16,0,0,1,157.68,31.91Z"/><path class="cls-40" d="M163.82,35.91,161.87,37a.14.14,0,0,1-.15,0l-.1-.05a.15.15,0,0,1,0-.26l1.92-1.15a.14.14,0,0,1,.15,0l.13.08A.15.15,0,0,1,163.82,35.91Z"/><path class="cls-30" d="M159.17,32.85l-1,.57h-.07l-.05,0a.08.08,0,0,1,0-.13l1-.57a0,0,0,0,1,.07,0l.07,0A.07.07,0,0,1,159.17,32.85Z"/><path class="cls-30" d="M158.41,34.18l-.15.63a0,0,0,0,1,0,0h0a.1.1,0,0,1-.06-.08l.14-.63a0,0,0,0,1,0,0h0S158.41,34.15,158.41,34.18Z"/><path class="cls-30" d="M159.08,34.82l-.87,0s0,0,0,0l0,0a.08.08,0,0,1,.07-.1l.86,0s0,0,0,0l0,.06A.07.07,0,0,1,159.08,34.82Z"/><path class="cls-30" d="M162,34.44,161,35a.09.09,0,0,1-.07,0l0,0a.08.08,0,0,1,0-.13l1-.57a0,0,0,0,1,.07,0l.07,0A.07.07,0,0,1,162,34.44Z"/><path class="cls-41" d="M165.36,30.75a11.9,11.9,0,0,0-13.9,0H150v3c0,2.86,3.79,5.18,8.46,5.18s8.45-2.32,8.45-5.18v-3Z"/><ellipse class="cls-25" cx="158.41" cy="30.75" rx="8.45" ry="5.19"/><path class="cls-42" d="M158.41,26.83c4,0,7.27,1.89,7.58,4.29,0-.12,0-.25,0-.37,0-2.58-3.41-4.67-7.61-4.67s-7.61,2.09-7.61,4.67a2.31,2.31,0,0,0,0,.37C151.14,28.72,154.41,26.83,158.41,26.83Z"/><path class="cls-43" d="M157.15,28.2l-2.44,1.41a.65.65,0,0,0,0,1.12L159,33.22a.63.63,0,0,0,.65,0l2.43-1.41a.65.65,0,0,0,0-1.12L157.8,28.2A.63.63,0,0,0,157.15,28.2Z"/><path class="cls-44" d="M156.44,28.28l-1.95,1.13a.14.14,0,0,1-.15,0l-.1-.05a.15.15,0,0,1,0-.26L156.16,28a.14.14,0,0,1,.15,0l.13.07A.15.15,0,0,1,156.44,28.28Z"/><path class="cls-45" d="M162.58,32.28l-2,1.13a.14.14,0,0,1-.15,0l-.09,0a.15.15,0,0,1,0-.26L162.29,32a.15.15,0,0,1,.16,0l.13.07A.15.15,0,0,1,162.58,32.28Z"/><path class="cls-30" d="M157.92,29.23l-1,.57h-.08l-.05,0a.08.08,0,0,1,0-.13l1-.57a.08.08,0,0,1,.08,0l.06,0A.08.08,0,0,1,157.92,29.23Z"/><path class="cls-30" d="M157.16,30.56l-.14.63a0,0,0,0,1,0,0h0a.06.06,0,0,1-.06-.07l.13-.64,0,0h.05A.07.07,0,0,1,157.16,30.56Z"/><path class="cls-30" d="M157.83,31.2l-.86,0a.07.07,0,0,1-.05,0v0a.07.07,0,0,1,.06-.1l.86,0a0,0,0,0,1,0,0l0,.05A.07.07,0,0,1,157.83,31.2Z"/><path class="cls-30" d="M160.71,30.82l-1,.57h-.08l0,0a.08.08,0,0,1,0-.13l1-.58h.08l.06,0A.08.08,0,0,1,160.71,30.82Z"/><path class="cls-46" d="M176.46,44.68a11.93,11.93,0,0,0-11-8.44l-1.2-.91-1.79,2.35c-1.74,2.27-.14,6.41,3.57,9.25s8.13,3.29,9.87,1l1.79-2.34Z"/><ellipse class="cls-25" cx="170.94" cy="40.46" rx="5.19" ry="8.45" transform="translate(35.01 151.74) rotate(-52.62)"/><path class="cls-47" d="M173.32,37.35c3.18,2.42,4.63,5.91,3.42,8,.08-.09.17-.18.25-.28,1.56-2,.12-5.77-3.22-8.33s-7.31-3-8.88-.91a3.45,3.45,0,0,0-.2.32C166.4,34.44,170.14,34.92,173.32,37.35Z"/><path class="cls-48" d="M171.49,37.67l-2.8-.36a.66.66,0,0,0-.68.9l1.92,4.6a.65.65,0,0,0,.51.39l2.79.36a.65.65,0,0,0,.68-.9L172,38.07A.66.66,0,0,0,171.49,37.67Z"/><path class="cls-49" d="M170.87,37.31,168.63,37a.18.18,0,0,1-.12-.09l0-.1a.15.15,0,0,1,.16-.21l2.22.25a.15.15,0,0,1,.12.1l.06.13A.15.15,0,0,1,170.87,37.31Z"/><path class="cls-50" d="M173.32,44.22l-2.24-.29a.16.16,0,0,1-.12-.09l0-.11a.15.15,0,0,1,.16-.2l2.22.25a.16.16,0,0,1,.12.09l.06.14A.16.16,0,0,1,173.32,44.22Z"/><path class="cls-30" d="M171.47,39l-1.11-.15a.07.07,0,0,1-.06,0l0-.05a.08.08,0,0,1,.08-.11l1.11.13a.07.07,0,0,1,.06,0l0,.07A.08.08,0,0,1,171.47,39Z"/><path class="cls-30" d="M170.06,39.56l-.49.42s0,0,0,0l0,0a.07.07,0,0,1,0-.09l.49-.42h0l0,0A.07.07,0,0,1,170.06,39.56Z"/><path class="cls-30" d="M170.21,40.48l-.7-.52s0,0,0-.05l0,0a.08.08,0,0,1,.11,0l.7.5a.08.08,0,0,1,0,.05l0,.06A.09.09,0,0,1,170.21,40.48Z"/><path class="cls-30" d="M172.73,41.92l-1.12-.14a.06.06,0,0,1-.06-.05l0,0a.07.07,0,0,1,.08-.1l1.11.12a.15.15,0,0,1,.06,0l0,.07A.08.08,0,0,1,172.73,41.92Z"/><polygon class="cls-22" points="167.58 55.25 170.11 56.71 170.96 56.22 168.42 54.76 167.58 55.25"/><polygon class="cls-22" points="167.58 54.27 168.42 54.76 170.96 53.3 170.11 52.81 167.58 54.27"/><polygon class="cls-22" points="172.64 53.3 171.8 53.78 170.96 53.3 171.8 52.81 172.64 53.3"/><polygon class="cls-22" points="171.8 56.71 170.96 56.22 173.49 54.76 174.33 55.25 171.8 56.71"/><polygon class="cls-22" points="173.49 53.78 172.64 54.27 173.49 54.76 174.33 54.27 173.49 53.78"/><polygon class="cls-22" points="172.64 52.32 173.49 51.83 176.02 53.3 175.18 53.78 172.64 52.32"/><polygon class="cls-22" points="172.64 51.34 173.49 51.83 176.02 50.37 175.18 49.88 172.64 51.34"/><polygon class="cls-22" points="176.87 49.88 176.02 50.37 176.87 50.86 177.71 50.37 176.87 49.88"/><polygon class="cls-22" points="178.56 51.83 176.02 53.3 176.87 53.78 179.4 52.32 178.56 51.83"/><polygon class="cls-22" points="178.56 50.86 177.71 51.34 178.56 51.83 179.4 51.34 178.56 50.86"/><polygon class="cls-22" points="162.51 57.2 165.04 55.73 165.89 56.22 163.35 57.69 162.51 57.2"/><polygon class="cls-22" points="162.51 58.17 163.35 57.69 165.89 59.15 165.04 59.64 162.51 58.17"/><polygon class="cls-22" points="166.73 59.64 165.89 59.15 168.42 57.69 169.26 58.17 166.73 59.64"/><polygon class="cls-22" points="167.58 57.2 168.42 57.69 169.26 57.2 168.42 56.71 167.58 57.2"/><polygon class="cls-22" points="166.73 57.69 168.42 56.71 167.58 56.22 165.89 57.2 166.73 57.69"/><polygon class="cls-22" points="165.89 55.25 165.04 55.73 165.89 56.22 166.73 55.73 165.89 55.25"/><line class="cls-23" x1="143.66" y1="51.7" x2="107.24" y2="72.85"/><path class="cls-16" d="M59.76,113.58,114.2,82.15a3.72,3.72,0,0,0,0-6.44L59.63,44.33a3.72,3.72,0,0,0-3.71,0L1.86,75.54a3.72,3.72,0,0,0,0,6.43L56,113.57A3.69,3.69,0,0,0,59.76,113.58Z"/><path class="cls-17" d="M59.76,107.51,114.2,76.08a3.73,3.73,0,0,0,0-6.45L59.63,38.25a3.72,3.72,0,0,0-3.71,0L1.86,69.47a3.72,3.72,0,0,0,0,6.43L56,107.5A3.74,3.74,0,0,0,59.76,107.51Z"/><polygon class="cls-51" points="34.39 42.23 53.16 53.06 53.16 74.72 34.39 63.88 34.39 42.23"/><polygon class="cls-52" points="71.91 42.23 53.16 53.06 53.16 74.72 71.91 63.88 71.91 42.23"/><polygon class="cls-53" points="53.16 31.4 34.39 42.23 53.16 53.06 71.91 42.23 53.16 31.4"/><polygon class="cls-54" points="55.6 46.89 59.66 49.23 63.72 46.89 59.66 44.55 55.6 46.89"/><polygon class="cls-19" points="59.66 53.91 59.66 49.23 63.72 46.89 63.72 51.57 59.66 53.91"/><polygon class="cls-55" points="81.41 65.66 66.45 74.29 66.45 91.55 81.41 82.92 81.41 65.66"/><polygon class="cls-56" points="51.5 65.66 66.45 74.29 66.45 91.55 51.5 82.92 51.5 65.66"/><polygon class="cls-57" points="66.45 57.02 81.41 65.66 66.45 74.29 51.5 65.66 66.45 57.02"/><polygon class="cls-54" points="64.5 69.37 61.27 71.23 58.03 69.37 61.27 67.5 64.5 69.37"/><polygon class="cls-19" points="61.27 74.97 61.27 71.23 58.03 69.37 58.03 73.1 61.27 74.97"/><polygon class="cls-58" points="26.71 69.43 37.13 75.44 37.13 87.47 26.71 81.45 26.71 69.43"/><polygon class="cls-59" points="47.54 69.43 37.13 75.44 37.13 87.47 47.54 81.45 47.54 69.43"/><polygon class="cls-60" points="37.13 63.42 26.71 69.43 37.13 75.44 47.54 69.43 37.13 63.42"/><polygon class="cls-54" points="38.48 72.02 40.74 73.32 42.99 72.02 40.74 70.72 38.48 72.02"/><polygon class="cls-19" points="40.74 75.92 40.74 73.32 42.99 72.02 42.99 74.62 40.74 75.92"/><polygon class="cls-22" points="52.01 102.11 53.16 102.78 54.33 103.45 55.48 104.12 56.65 104.79 57.81 105.46 58.97 104.79 53.16 101.42 52.01 102.11"/><polygon class="cls-22" points="56.65 99.43 53.16 101.42 54.34 102.1 57.81 100.1 56.65 99.43"/><polygon class="cls-22" points="58.97 99.43 57.81 100.1 58.97 100.77 60.13 100.1 58.97 99.43"/><polygon class="cls-22" points="56.66 103.44 60.13 101.44 61.26 102.09 57.81 104.12 56.66 103.44"/><polygon class="cls-22" points="61.28 100.77 60.13 101.44 58.97 100.77 60.13 100.1 61.28 100.77"/><polygon class="cls-22" points="60.14 98.75 61.3 98.08 65.94 100.75 64.78 101.42 60.14 98.75"/><polygon class="cls-22" points="60.14 97.41 63.62 95.4 64.78 96.07 61.3 98.08 60.14 97.41"/><polygon class="cls-22" points="65.94 95.4 64.78 96.07 69.42 98.75 70.58 98.08 65.94 95.4"/><polygon class="cls-22" points="63.62 99.42 67.1 97.41 68.26 98.08 64.78 100.08 63.62 99.42"/><polygon class="cls-22" points="65.94 94.06 71.75 97.41 72.91 96.74 67.11 93.39 65.94 94.06"/><polygon class="cls-22" points="70.59 91.38 67.11 93.39 68.27 94.06 71.75 92.05 70.59 91.38"/><polygon class="cls-22" points="72.91 91.38 71.75 92.05 74.07 93.39 75.23 92.72 72.91 91.38"/><polygon class="cls-22" points="75.23 94.06 71.75 96.07 70.58 95.4 74.07 93.39 75.23 94.06"/><polygon class="cls-22" points="76.39 94.73 75.23 94.06 76.39 93.39 77.55 94.06 76.39 94.73"/><polygon class="cls-22" points="72.91 90.02 78.7 86.67 79.85 87.33 74.06 90.69 72.91 90.02"/><polygon class="cls-22" points="81.03 92.03 76.38 89.35 77.53 88.68 82.19 91.36 81.03 92.03"/><path class="cls-15" d="M102.23,227a42.35,42.35,0,0,1,27.57-31.39,12.19,12.19,0,0,1,4.87-.82c2.55.23,4.76,1.81,6.82,3.32l10.11,7.43a125.21,125.21,0,0,0-25.12,35.06,2.19,2.19,0,0,1-.89,1.13,2.16,2.16,0,0,1-1.42,0,88.77,88.77,0,0,1-22.74-8.83l1.3-5.44"/><rect class="cls-1" x="196.81" y="64.51" width="24.67" height="60.16" transform="translate(22.94 228.83) rotate(-60.12)"/><ellipse class="cls-1" cx="183.08" cy="79.62" rx="12.34" ry="12.09" transform="translate(22.85 198.71) rotate(-60.12)"/><circle class="cls-14" cx="183.52" cy="79.87" r="9.37"/></g></g></svg>