<svg xmlns="http://www.w3.org/2000/svg" viewBox="0 0 230.95 178.06"><defs><style>.cls-1,.cls-8{fill:none;stroke-miterlimit:10;}.cls-1{stroke:#967869;}.cls-2{fill:#f95d5d;}.cls-3{fill:#bc4242;}.cls-4{fill:#e25252;}.cls-5{fill:#ffd066;}.cls-6{fill:#d69900;}.cls-7{fill:#f9b51c;}.cls-8{stroke:#9db1c9;stroke-width:3px;}.cls-9{fill:#0cc6c1;}.cls-10{fill:#00e5e5;}.cls-11{fill:#82716c;}.cls-12{fill:#9e908c;}.cls-13{fill:#c4e6f7;}.cls-14{fill:#a8cbe5;}.cls-15{fill:#ebe4d7;}.cls-16{fill:#d6cfc5;}.cls-17{fill:#cac3b9;}.cls-18{fill:#d94c47;}.cls-19{fill:#f4b300;}.cls-20{fill:#b5866c;}.cls-21{fill:#dbdacd;}.cls-22{fill:#edecda;}.cls-23{fill:#6f716c;}.cls-24{fill:#b3b4b3;}.cls-25{fill:#91a680;}.cls-26{fill:#e3efce;}.cls-27{fill:#718a59;}.cls-28{fill:#cfe5bd;}.cls-29{fill:#897f61;}.cls-30{fill:#e1f1f9;}.cls-31{fill:#adbdc3;}.cls-32{fill:#f7fbfd;}.cls-33{fill:#f3faff;}.cls-34{fill:#bab2aa;}.cls-35{fill:#d9d0c7;}.cls-36{fill:#f0e8e1;}.cls-37{fill:#fff;}.cls-38{fill:#efefef;}</style></defs><title>자산 6</title><g id="레이어_2" data-name="레이어 2"><g id="레이어_1-2" data-name="레이어 1"><polygon class="cls-1" points="138.19 37.54 76.9 72.87 138.19 108.2 199.48 72.87 138.19 37.54"/><polygon class="cls-2" points="61.6 64.04 76.9 72.87 92.2 64.04 76.9 55.2 61.6 64.04"/><polygon class="cls-3" points="61.6 81.7 61.6 64.04 76.9 72.87 76.9 90.53 61.6 81.7"/><polygon class="cls-4" points="92.2 81.7 76.9 90.53 76.9 72.87 92.2 64.04 92.2 81.7"/><polygon class="cls-5" points="122.89 99.37 138.19 108.2 153.49 99.37 138.19 90.53 122.89 99.37"/><polygon class="cls-6" points="122.89 117.03 122.89 99.37 138.19 108.2 138.19 125.87 122.89 117.03"/><polygon class="cls-7" points="153.49 117.03 138.19 125.87 138.19 108.2 153.49 99.37 153.49 117.03"/><polygon class="cls-5" points="184.18 64.04 199.48 72.87 214.78 64.04 199.48 55.2 184.18 64.04"/><polygon class="cls-6" points="184.18 81.7 184.18 64.04 199.48 72.87 199.48 90.53 184.18 81.7"/><polygon class="cls-7" points="214.78 81.7 199.48 90.53 199.48 72.87 214.78 64.04 214.78 81.7"/><polygon class="cls-6" points="122.89 46.37 122.89 28.7 138.19 37.54 138.19 55.2 122.89 46.37"/><polygon class="cls-7" points="153.49 46.37 138.19 55.2 138.19 37.54 153.49 28.7 153.49 46.37"/><polygon class="cls-5" points="122.89 28.7 138.19 37.54 153.49 28.7 138.19 19.87 122.89 28.7"/><line class="cls-1" x1="107.5" y1="55.23" x2="130.08" y2="42.22"/><line class="cls-1" x1="168.84" y1="90.53" x2="191.42" y2="77.52"/><line class="cls-1" x1="168.42" y1="54.97" x2="145.84" y2="41.95"/><polyline class="cls-8" points="195.8 143.57 174.35 131.36 124.76 159.99 74.94 131.36"/><path class="cls-9" d="M222.92,128.37,214,123.21l-34.05,19.66-.23-.85h-9.14l-6.16,1.88v7.92l14.77,8.52a10.14,10.14,0,0,0,10.16,0l40.18-23.19a2.85,2.85,0,0,0,1.43-2.49h0v-7.91Z"/><path class="cls-10" d="M229.52,124.26l-15.53-9-49.58,28.6,14.77,8.53a10.18,10.18,0,0,0,10.16,0l40.18-23.2A2.87,2.87,0,0,0,229.52,124.26Z"/><ellipse class="cls-11" cx="207.72" cy="123.54" rx="2.53" ry="1.46"/><ellipse class="cls-12" cx="207.72" cy="122.89" rx="2.53" ry="1.46"/><ellipse class="cls-11" cx="217.99" cy="129.43" rx="2.53" ry="1.46"/><ellipse class="cls-12" cx="217.99" cy="128.78" rx="2.53" ry="1.46"/><ellipse class="cls-11" cx="217.38" cy="122.97" rx="2.53" ry="1.46"/><ellipse class="cls-12" cx="217.38" cy="122.33" rx="2.53" ry="1.46"/><ellipse class="cls-11" cx="207.72" cy="129.43" rx="2.53" ry="1.46"/><ellipse class="cls-12" cx="207.72" cy="128.78" rx="2.53" ry="1.46"/><ellipse class="cls-11" cx="182.01" cy="144.16" rx="6.08" ry="3.51"/><ellipse class="cls-12" cx="182.01" cy="142.61" rx="6.08" ry="3.51"/><polygon class="cls-13" points="16.99 80.09 61.66 54.3 61.66 105.88 16.99 80.09"/><polygon class="cls-14" points="106.33 80.09 61.66 54.3 61.66 105.88 106.33 80.09"/><ellipse class="cls-15" cx="57.81" cy="110.22" rx="11.17" ry="5.15" transform="translate(-56.35 60.63) rotate(-38.84)"/><path class="cls-16" d="M6.05,46C1.25,49.82-1.2,54.75.58,57L18,43C16.2,40.74,10.85,42.08,6.05,46Z"/><path class="cls-16" d="M12.51,54c4.81-3.87,7.25-8.8,5.47-11L.58,57C2.37,59.18,7.71,57.84,12.51,54Z"/><path class="cls-17" d="M18,43c1.61,2-.55,7-4.88,10.52S4.26,58.26,2.65,56.26s.6-6.43,4.92-9.91S16.37,41,18,43Z"/><path class="cls-15" d="M18,43c1.78,2.21-.66,7.14-5.47,11S2.37,59.18.58,57l48.53,60.27,17.4-14Z"/><path class="cls-18" d="M29.46,75c-4.8,3.87-10.14,5.21-11.93,3l8.19,10.17c1.78,2.21,7.12.87,11.93-3s7.25-8.8,5.46-11L34.93,64C36.71,66.22,34.27,71.15,29.46,75Z"/><path class="cls-18" d="M36,83.13c-4.8,3.87-10.14,5.21-11.93,3l8.19,10.17c1.78,2.21,7.12.87,11.93-3s7.25-8.8,5.46-11L41.46,72.11C43.24,74.33,40.8,79.26,36,83.13Z"/><path class="cls-19" d="M32.68,79c-4.8,3.86-10.14,5.2-11.93,3l8.19,10.16c1.78,2.22,7.12.88,11.92-3s7.26-8.8,5.47-11L38.15,68C39.93,70.22,37.48,75.15,32.68,79Z"/><rect class="cls-20" x="65.67" y="23.65" width="1.68" height="91.5"/><polygon class="cls-21" points="59.24 19.01 66.51 23.2 66.51 39.79 59.24 35.79 59.24 19.01"/><polygon class="cls-22" points="73.78 19.01 66.51 23.2 66.51 39.79 73.78 35.79 73.78 19.01"/><rect class="cls-20" x="60.59" y="23.91" width="1.68" height="91.5" transform="translate(-13.01 14.13) rotate(-11.87)"/><polygon class="cls-21" points="43.95 21.84 51.93 24.45 55.34 40.68 47.41 38.26 43.95 21.84"/><polygon class="cls-22" points="58.18 18.85 51.93 24.45 55.34 40.68 61.63 35.27 58.18 18.85"/><rect class="cls-20" x="68.44" y="37.4" width="1.68" height="91.5" transform="translate(23.16 -14.76) rotate(14.58)"/><polygon class="cls-21" points="74.94 32.55 80.91 38.44 76.74 54.49 70.71 48.79 74.94 32.55"/><polygon class="cls-22" points="89 36.2 80.91 38.44 76.74 54.49 84.78 52.45 89 36.2"/><rect class="cls-15" x="32.53" y="36.21" width="22.34" height="77.37" transform="translate(-8.62 5.75) rotate(-6.85)"/><ellipse class="cls-16" cx="39.08" cy="36.49" rx="11.17" ry="5.15" transform="translate(-4.07 4.92) rotate(-6.85)"/><ellipse class="cls-15" cx="48.31" cy="113.31" rx="11.17" ry="5.15" transform="translate(-13.17 6.57) rotate(-6.85)"/><path class="cls-18" d="M42.92,68.43c-6.12.74-11.36-1-11.7-3.78l1.55,13c.34,2.82,5.58,4.52,11.71,3.78S55.29,77.77,55,74.94L53.39,62C53.73,64.81,49,67.7,42.92,68.43Z"/><path class="cls-18" d="M44.16,78.77c-6.12.74-11.36-1-11.7-3.78L34,88c.34,2.82,5.58,4.51,11.7,3.78s10.81-3.62,10.47-6.45l-1.55-13C55,75.15,50.29,78,44.16,78.77Z"/><path class="cls-19" d="M43.53,73.53c-6.12.73-11.36-1-11.7-3.78l1.56,13c.34,2.83,5.58,4.52,11.7,3.78S55.9,82.86,55.56,80L54,67.08C54.35,69.91,49.66,72.79,43.53,73.53Z"/><polygon class="cls-23" points="88.55 36.4 75.33 127.85 71.85 125.11 85.07 33.66 88.55 36.4"/><polygon class="cls-24" points="88.55 36.4 75.33 127.85 79.44 126.21 92.66 34.76 88.55 36.4"/><polygon class="cls-25" points="89.41 30.41 93.81 0 77.34 20.91 89.41 30.41"/><polygon class="cls-26" points="89.41 30.41 93.81 0 103.68 24.71 89.41 30.41"/><polygon class="cls-27" points="77.34 20.91 82.28 33.26 88.31 38.02 89.41 30.41 77.34 20.91"/><polygon class="cls-28" points="103.68 24.71 95.45 35.16 88.31 38.02 89.41 30.41 103.68 24.71"/><rect class="cls-29" x="66.38" y="64.67" width="7.42" height="11.81" transform="translate(27.36 -19.24) rotate(19.36)"/><circle class="cls-30" cx="61.66" cy="94.76" r="16.96"/><path class="cls-18" d="M56.85,108.45a14,14,0,0,0,17.83-8.56L48.3,90.62A14,14,0,0,0,56.85,108.45Z"/><rect class="cls-30" x="62.97" y="70.86" width="9.34" height="13.74" transform="translate(29.59 -18.03) rotate(19.36)"/><rect class="cls-30" x="62.72" y="69.09" width="14.84" height="3.94" transform="translate(27.52 -19.23) rotate(19.36)"/><polygon class="cls-31" points="90.25 54.47 68.41 115.13 76.73 124.98 100.76 58.25 90.25 54.47"/><polygon class="cls-32" points="111.12 61.98 89.28 122.65 76.59 124.93 100.62 58.2 111.12 61.98"/><rect class="cls-29" x="90.47" y="53.22" width="22.34" height="5.19" transform="translate(24.92 -31.14) rotate(19.8)"/><rect class="cls-19" x="89.43" y="45.95" width="29.12" height="7.71" transform="translate(23.02 -32.29) rotate(19.8)"/><rect class="cls-19" x="95.02" y="36.02" width="25.09" height="7.71" transform="translate(181.53 -47.81) rotate(109.8)"/><rect class="cls-18" x="104.52" y="30.84" width="7.71" height="13.58" transform="translate(19.16 -34.49) rotate(19.8)"/><rect class="cls-29" x="108.4" y="25.56" width="7.71" height="2.59" transform="translate(15.74 -36.45) rotate(19.8)"/><polygon class="cls-33" points="61.66 105.88 106.33 80.09 106.33 131.67 61.66 157.47 61.66 105.88"/><polygon class="cls-14" points="16.99 80.09 61.66 105.88 61.66 157.47 16.99 131.67 16.99 80.09"/><polygon class="cls-34" points="72.9 142.93 91.44 153.63 91.44 175.02 72.9 164.32 72.9 142.93"/><polygon class="cls-35" points="109.96 142.93 91.44 153.63 91.44 175.02 109.96 164.32 109.96 142.93"/><polygon class="cls-36" points="91.44 132.23 72.9 142.93 91.44 153.63 109.96 142.93 91.44 132.23"/><polygon class="cls-37" points="93.85 147.53 97.86 149.85 101.87 147.53 97.86 145.22 93.85 147.53"/><polygon class="cls-38" points="97.86 154.47 97.86 149.85 101.87 147.53 101.87 152.16 97.86 154.47"/><polygon class="cls-34" points="56.23 158.29 67.65 164.88 67.65 178.06 56.23 171.47 56.23 158.29"/><polygon class="cls-35" points="79.06 158.29 67.65 164.88 67.65 178.06 79.06 171.47 79.06 158.29"/><polygon class="cls-36" points="67.65 151.7 56.23 158.29 67.65 164.88 79.06 158.29 67.65 151.7"/><polygon class="cls-37" points="67.64 160.25 63.64 162.57 59.63 160.25 63.64 157.94 67.64 160.25"/><polygon class="cls-38" points="63.64 167.2 63.64 162.57 59.63 160.25 59.63 164.88 63.64 167.2"/></g></g></svg>